<?xml version="1.0" encoding="UTF-8" standalone="no"?>
<svg
   xmlns:dc="http://purl.org/dc/elements/1.1/"
   xmlns:cc="http://creativecommons.org/ns#"
   xmlns:rdf="http://www.w3.org/1999/02/22-rdf-syntax-ns#"
   xmlns:svg="http://www.w3.org/2000/svg"
   xmlns="http://www.w3.org/2000/svg"
   viewBox="0 0 666.66669 666.66669"
   height="666.66669"
   width="666.66669"
   xml:space="preserve"
   id="svg2"
   version="1.1"><metadata
     id="metadata8"><rdf:RDF><cc:Work
         rdf:about=""><dc:format>image/svg+xml</dc:format><dc:type
           rdf:resource="http://purl.org/dc/dcmitype/StillImage" /></cc:Work></rdf:RDF></metadata><defs
     id="defs6" /><g
     transform="matrix(1.3333333,0,0,-1.3333333,0,666.66667)"
     id="g10"><g
       transform="scale(0.1)"
       id="g12"><path
         id="path14"
         style="fill:#1a2638;fill-opacity:0;fill-rule:nonzero;stroke:none"
         d="M 0,0.0390625 H 5000 V 5000.0391 H 0 Z" /><path
         id="path16"
         style="fill:#1a2c49;fill-opacity:1;fill-rule:nonzero;stroke:none"
         d="m 1513.16,516.602 c -2.96,0 -5.83,0.027 -8.73,0.109 C 1197.97,524.352 960,655.039 925,1070.04 c -35,415 220,721 220,1168 0,166.15 -83.58,311.99 -171.676,468.44 C 1199.36,2557.09 1486.03,2464.02 1486.57,2279 1487.45,1975.86 1231.67,1699.62 1245,1248.87 1254.63,923.219 1606.12,690.539 1921.17,631.559 1765.69,564.852 1621.26,516.602 1513.16,516.602 m 2135.86,223.98 c -147.76,-0.012 -288,70.199 -421.37,140.418 -77.41,40.75 -152.49,81.5 -225.37,108.52 86.81,19.47 185.9,33.76 301.47,40.52 538.25,31.47 876.4,328.89 943.87,626.38 108.13,-412.5 -140.85,-787.459 -457.62,-893.049 -47.73,-15.91 -94.74,-22.789 -140.98,-22.789 m 406.47,1344.258 c -166.71,150.07 -373.45,306.03 -365.49,573.49 13.33,448.29 380,738.38 286.67,1086.38 -56.23,209.64 -354.39,289.6 -653.23,320.27 -60.89,56.47 -136.93,100.68 -223.31,131 v 0 c -0.18,0.07 -0.38,0.14 -0.56,0.2 -0.01,0 -0.02,0.01 -0.04,0.02 -0.37,0.12 -0.72,0.25 -1.1,0.38 -0.03,0.01 -0.06,0.02 -0.1,0.04 -0.14,0.04 -0.32,0.11 -0.46,0.15 -0.02,0.02 -0.07,0.03 -0.09,0.03 -0.18,0.07 -0.35,0.13 -0.53,0.19 -0.03,0.01 -0.07,0.03 -0.1,0.03 -0.14,0.05 -0.28,0.11 -0.43,0.15 -0.04,0.02 -0.1,0.04 -0.15,0.05 -0.14,0.05 -0.29,0.11 -0.43,0.16 -0.03,0.01 -0.07,0.02 -0.1,0.03 -0.16,0.05 -0.36,0.13 -0.52,0.18 -0.04,0.01 -0.08,0.03 -0.12,0.04 -0.12,0.04 -0.29,0.1 -0.41,0.14 -0.05,0.02 -0.1,0.03 -0.15,0.05 -0.18,0.06 -0.35,0.12 -0.53,0.18 -71.78,24.55 -143.91,37.31 -213.58,37.31 -124.42,0 -241.13,-40.63 -334.79,-127.28 -66.97,11.27 -132.68,25.14 -201.3,38.31 356.18,124.73 816.28,382.51 1177.66,382.51 93.72,0 180.78,-17.33 257.7,-58.81 445,-240 642.66,-850.19 480,-1340.39 -134.45,-405.2 -336.41,-665.9 -204.51,-1044.81 M 788.203,3483.04 c 15.231,79.58 41.574,164.89 81.797,256.89 124.945,285.8 339.78,350.2 579.71,355.62 C 1170.14,3976.09 914.828,3753.6 788.203,3483.04" /><path
         id="path18"
         style="fill:#1d2d47;fill-opacity:1;fill-rule:nonzero;stroke:none"
         d="m 2071.27,616.891 c -47.94,0 -98.55,5.019 -150.1,14.668 317.38,136.171 680.74,349.183 874.3,385.151 17.27,3.21 34.67,4.7 52.21,4.7 50.41,0 101.93,-12.36 154.6,-31.89 C 2639.56,908.172 2490.89,736.309 2246.7,645.039 2195.74,625.992 2135.86,616.891 2071.27,616.891 M 4247.62,1656.42 c -19.88,75.82 -51.81,152.88 -97.62,229.8 -41.83,70.24 -72.72,136.03 -94.51,198.62 112.71,-101.45 207.13,-200.22 204.51,-328.91 -0.67,-32.92 -4.83,-66.22 -12.38,-99.51 M 973.324,2706.48 c -144.301,95.37 -263.89,213.7 -268.554,393.56 -3.469,133.93 27.351,263.17 83.433,383 -63.273,-330.64 65.11,-563.41 185.121,-776.56 m 978.126,1369.37 c -76.67,0 -155.19,5.02 -233.54,10.04 -78.36,5.03 -156.54,10.05 -232.59,10.05 -11.93,0 -23.8,-0.12 -35.61,-0.39 131.46,56.17 268.3,89.58 399.63,94.49 25.31,0.95 49.91,1.39 73.77,1.39 165.63,0 298.2,-21.41 421.53,-45.09 -85.85,-30.06 -165.62,-52.38 -236.57,-61.51 -50.87,-6.55 -103.29,-8.98 -156.62,-8.98" /><path
         id="path20"
         style="fill:#1e3458;fill-opacity:1;fill-rule:nonzero;stroke:none"
         d="m 1921.17,631.559 c -315.05,58.98 -666.54,291.66 -676.17,617.311 -13.33,450.75 242.45,726.99 241.57,1030.13 -0.54,185.02 -287.21,278.09 -513.246,427.48 -120.011,213.15 -248.394,445.92 -185.121,776.56 126.625,270.56 381.937,493.05 661.507,612.51 11.81,0.27 23.68,0.39 35.61,0.39 76.05,0 154.23,-5.02 232.59,-10.05 78.35,-5.02 156.87,-10.04 233.54,-10.04 53.33,0 105.75,2.43 156.62,8.98 70.95,9.13 150.72,31.45 236.57,61.51 68.62,-13.17 134.33,-27.04 201.3,-38.31 -66.69,-61.7 -121.66,-146.73 -159.39,-257.03 -0.09,-0.28 -0.19,-0.57 -0.29,-0.85 -0.02,-0.08 -0.05,-0.16 -0.08,-0.24 -0.08,-0.25 -0.18,-0.53 -0.26,-0.78 -0.01,-0.02 -0.02,-0.04 -0.02,-0.06 -0.1,-0.27 -0.19,-0.56 -0.29,-0.83 -0.03,-0.1 -0.05,-0.16 -0.09,-0.26 -0.08,-0.25 -0.14,-0.44 -0.23,-0.68 -0.02,-0.06 -0.04,-0.12 -0.06,-0.18 -0.09,-0.27 -0.18,-0.54 -0.28,-0.82 -0.02,-0.08 -0.06,-0.18 -0.09,-0.26 -0.06,-0.19 -0.13,-0.4 -0.2,-0.6 -0.03,-0.1 -0.06,-0.17 -0.09,-0.27 -0.1,-0.28 -0.18,-0.54 -0.28,-0.81 -0.01,-0.04 -0.02,-0.08 -0.04,-0.12 -0.09,-0.28 -0.17,-0.5 -0.26,-0.77 -0.02,-0.06 -0.04,-0.12 -0.06,-0.18 -0.08,-0.25 -0.18,-0.53 -0.26,-0.78 -0.01,-0.02 -0.03,-0.07 -0.03,-0.09 -0.1,-0.28 -0.19,-0.56 -0.28,-0.83 -0.04,-0.1 -0.06,-0.16 -0.09,-0.26 -0.06,-0.19 -0.13,-0.38 -0.19,-0.58 -0.04,-0.11 -0.07,-0.18 -0.11,-0.3 -0.09,-0.28 -0.17,-0.52 -0.26,-0.8 -0.02,-0.06 -0.04,-0.11 -0.06,-0.17 -0.08,-0.22 -0.16,-0.46 -0.23,-0.68 -0.03,-0.08 -0.05,-0.15 -0.08,-0.23 -0.09,-0.27 -0.19,-0.56 -0.28,-0.84 -0.01,-0.01 -0.02,-0.06 -0.03,-0.08 -0.09,-0.27 -0.16,-0.5 -0.25,-0.77 -0.03,-0.08 -0.05,-0.14 -0.08,-0.21 -0.19,-0.58 -0.37,-1.11 -0.56,-1.69 -0.03,-0.08 -0.04,-0.12 -0.07,-0.2 -0.08,-0.24 -0.17,-0.51 -0.25,-0.76 -0.01,-0.02 -0.02,-0.07 -0.03,-0.09 -0.09,-0.27 -0.19,-0.58 -0.28,-0.85 -0.02,-0.06 -0.04,-0.12 -0.06,-0.18 -0.09,-0.25 -0.18,-0.52 -0.26,-0.77 0,-0.02 -0.02,-0.05 -0.02,-0.07 -0.1,-0.3 -0.2,-0.59 -0.3,-0.89 -0.01,-0.02 -0.02,-0.07 -0.03,-0.09 -0.08,-0.25 -0.17,-0.53 -0.25,-0.77 -0.02,-0.06 -0.05,-0.13 -0.06,-0.18 -0.19,-0.57 -0.4,-1.19 -0.59,-1.76 l -0.01,-0.05 c -0.51,-1.55 -1.01,-3.07 -1.52,-4.6 l -0.01,-0.04 c -71.52,-218.17 -77.53,-356.13 -16.75,-456.09 l -35.66,12.19 c -8.72,2.98 -17.59,4.4 -26.32,4.4 -33.8,0 -65.37,-21.25 -76.92,-55.01 l -344,-1005.78 c -14.53,-42.49 8.13,-88.71 50.61,-103.24 l 876.43,-299.76 c 8.71,-2.98 17.59,-4.4 26.31,-4.4 33.8,0 65.37,21.25 76.92,55.01 l 344.01,1005.79 c 14.53,42.48 -8.13,88.7 -50.62,103.23 l -35.65,12.2 c 113.75,43.52 195.5,163.94 275.56,398.02 83.68,244.67 24.09,443.05 -117.88,574.74 298.84,-30.67 597,-110.63 653.23,-320.27 93.33,-348 -273.34,-638.09 -286.67,-1086.38 -7.96,-267.46 198.78,-423.42 365.49,-573.49 21.79,-62.59 52.68,-128.38 94.51,-198.62 45.81,-76.92 77.74,-153.98 97.62,-229.8 -67.47,-297.49 -405.62,-594.91 -943.87,-626.38 -115.57,-6.76 -214.66,-21.05 -301.47,-40.52 -52.67,19.53 -104.19,31.89 -154.6,31.89 -17.54,0 -34.94,-1.49 -52.21,-4.7 -193.56,-35.968 -556.92,-248.98 -874.3,-385.151" /><path
         id="path22"
         style="fill:#77a7d8;fill-opacity:1;fill-rule:nonzero;stroke:none"
         d="m 1486.57,0 c -1.16,543.711 440.29,645.449 867.21,743.852 306.16,70.558 622.76,143.527 765.68,381.488 156.3,260.21 185.16,547.04 85.77,852.54 -74.51,229.04 -197.25,383.08 -198.48,384.61 l 31.14,25.11 c 5.19,-6.44 128.01,-160.34 204.95,-396.02 71.26,-218.27 113.66,-549.3 -89.08,-886.84 C 3002.08,852.219 2677.07,777.32 2362.76,704.871 1932.19,605.641 1525.48,511.898 1526.57,0.0820313 L 1486.57,0" /><path
         id="path24"
         style="fill:#77a7d8;fill-opacity:1;fill-rule:nonzero;stroke:none"
         d="m 2804.79,1920.39 -876.43,299.76 c -42.48,14.53 -65.14,60.75 -50.61,103.24 l 344,1005.78 c 14.53,42.48 60.75,65.14 103.24,50.61 l 876.42,-299.76 c 42.49,-14.53 65.15,-60.75 50.62,-103.23 L 2908.02,1971 c -14.53,-42.48 -60.75,-65.14 -103.23,-50.61" /><path
         id="path26"
         style="fill:#edf7fd;fill-opacity:1;fill-rule:nonzero;stroke:none"
         d="M 2795.42,2046.89 2013.24,2314.42 2356.82,3318.96 3139,3051.43 2795.42,2046.89" /><path
         id="path28"
         style="fill:#a6c4e6;fill-opacity:1;fill-rule:nonzero;stroke:none"
         d="m 2348.66,3295.1 c 68.27,-68.26 178,-118.09 329.84,-170.02 178.35,-61.01 309,-88.7 413.16,-57.46 l -734.84,251.34 -8.16,-23.86" /><path
         id="path30"
         style="fill:#edf7fd;fill-opacity:1;fill-rule:nonzero;stroke:none"
         d="m 2873.27,2430.69 -686.54,234.81 c -93.47,31.97 -120.47,-56.98 -157.56,-165.41 v 0 c -37.08,-108.43 -70.21,-195.29 23.26,-227.26 l 686.54,-234.81 c 93.47,-31.97 120.46,56.98 157.55,165.41 v 0 c 37.09,108.44 70.22,195.29 -23.25,227.26" /><path
         id="path32"
         style="fill:#edf7fd;fill-opacity:1;fill-rule:nonzero;stroke:none"
         d="m 2176.99,1846.23 -290.16,99.25 129.15,377.61 290.16,-99.24 -129.15,-377.62" /><path
         id="path34"
         style="fill:#485ab2;fill-opacity:1;fill-rule:nonzero;stroke:none"
         d="m 2167.55,1818.64 -290.16,99.24 9.44,27.6 290.16,-99.25 -9.44,-27.59" /><path
         id="path36"
         style="fill:#edf7fd;fill-opacity:1;fill-rule:nonzero;stroke:none"
         d="m 2022.73,1395.22 -290.16,99.24 122.74,430.97 331.16,-113.27 -163.74,-416.94" /><path
         id="path38"
         style="fill:#a6c4e6;fill-opacity:1;fill-rule:nonzero;stroke:none"
         d="m 1652.14,1521.97 c 0,0 12.64,201.77 135.98,134.92 123.34,-66.84 182.57,-243.87 182.57,-243.87 l -318.55,108.95" /><path
         id="path40"
         style="fill:#485ab2;fill-opacity:1;fill-rule:nonzero;stroke:none"
         d="m 2013.29,1367.62 -370.59,126.75 9.44,27.6 370.59,-126.75 -9.44,-27.6" /><path
         id="path42"
         style="fill:#a6c4e6;fill-opacity:1;fill-rule:nonzero;stroke:none"
         d="m 1986.46,1407.62 36.27,-12.4 28.9,73.59 c -49.04,-2.35 -65.17,-61.19 -65.17,-61.19" /><path
         id="path44"
         style="fill:#edf7fd;fill-opacity:1;fill-rule:nonzero;stroke:none"
         d="m 2379.24,1777.06 290.16,-99.24 129.15,377.61 -290.16,99.24 -129.15,-377.61" /><path
         id="path46"
         style="fill:#485ab2;fill-opacity:1;fill-rule:nonzero;stroke:none"
         d="m 2369.8,1749.46 290.16,-99.24 9.44,27.6 -290.16,99.24 -9.44,-27.6" /><path
         id="path48"
         style="fill:#edf7fd;fill-opacity:1;fill-rule:nonzero;stroke:none"
         d="m 2068.14,3469.22 -174.97,-256.37 322.99,-166.4 140.45,272.61 -288.47,150.16" /><path
         id="path50"
         style="fill:#211c1d;fill-opacity:1;fill-rule:nonzero;stroke:none"
         d="m 1788.34,3750.38 -3.55,3.52 -219.14,-221.29 275.12,-300.1 250.15,252.61 -302.78,272.17 -3.35,-3.39 3.55,-3.52 -3.34,-3.72 291.43,-261.96 -235.38,-237.7 -261.59,285.35 212.43,214.52 -3.55,3.51 -3.34,-3.72 3.34,3.72" /><path
         id="path52"
         style="fill:#edf7fd;fill-opacity:1;fill-rule:nonzero;stroke:none"
         d="m 1788.34,3750.38 -215.78,-217.9 268.35,-292.72 242.77,245.15 -295.34,265.47" /><path
         id="path54"
         style="fill:#485ab2;fill-opacity:1;fill-rule:nonzero;stroke:none"
         d="m 1783.55,3763.34 -223.99,-226.21 8.88,-8.8 224,226.21 -8.89,8.8" /><path
         id="path56"
         style="fill:#edf7fd;fill-opacity:1;fill-rule:nonzero;stroke:none"
         d="m 1477.85,3918.86 -45.74,-46.18 c -55.54,-56.09 -55.09,-146.58 0.99,-202.12 l 130.55,-129.27 215.78,217.9 -161.93,160.36 c -38.75,38.37 -101.28,38.06 -139.65,-0.69" /><path
         id="path58"
         style="fill:#edf7fd;fill-opacity:1;fill-rule:nonzero;stroke:none"
         d="m 2224.98,1326.04 290.16,-99.24 166.9,415.87 -331.17,113.26 -125.89,-429.89" /><path
         id="path60"
         style="fill:#a6c4e6;fill-opacity:1;fill-rule:nonzero;stroke:none"
         d="m 2595.57,1199.29 c 0,0 113.57,167.25 -24.87,189.94 -138.44,22.69 -293.68,-80.99 -293.68,-80.99 l 318.55,-108.95" /><path
         id="path62"
         style="fill:#485ab2;fill-opacity:1;fill-rule:nonzero;stroke:none"
         d="m 2215.54,1298.45 370.59,-126.75 9.44,27.59 -370.59,126.75 -9.44,-27.59" /><path
         id="path64"
         style="fill:#a6c4e6;fill-opacity:1;fill-rule:nonzero;stroke:none"
         d="m 2261.25,1313.64 -36.27,12.4 22.22,75.88 c 37.32,-31.89 14.05,-88.28 14.05,-88.28" /><path
         id="path66"
         style="fill:#a6c4e6;fill-opacity:1;fill-rule:nonzero;stroke:none"
         d="m 1775.48,3755.18 30.04,92.17 c 7.7,23.63 -5.21,49.03 -28.84,56.73 -23.63,7.7 -49.03,-5.21 -56.73,-28.84 l -22.83,-70.03 c -32.34,0.63 -68.39,-8.4 -91.51,-43.94 -50.59,-77.73 45.41,-131.75 45.41,-131.75 l 124.46,125.66" /><path
         id="path68"
         style="fill:#edf7fd;fill-opacity:1;fill-rule:nonzero;stroke:none"
         d="m 3123.78,2210.57 299.22,67.15 -68.15,391.23 -336.64,-75.55 105.57,-382.83" /><path
         id="path70"
         style="fill:#485ab2;fill-opacity:1;fill-rule:nonzero;stroke:none"
         d="m 3120.82,2197.08 310.62,69.71 -2.74,12.21 -310.62,-69.71 2.74,-12.21" /><path
         id="path72"
         style="fill:#edf7fd;fill-opacity:1;fill-rule:nonzero;stroke:none"
         d="m 3465.99,2086.24 -40.23,179.26 -209.98,-47.12 -0.02,0.01 -89.23,-20.04 0.31,-1.36 -56.41,-105.86 c -11.69,-21.93 -3.39,-49.19 18.55,-60.87 21.93,-11.69 49.19,-3.39 60.87,18.55 l 7.21,13.52 19.38,-86.34 c 11.94,-53.22 64.76,-86.67 117.97,-74.73 l 63.42,14.23 c 77.02,17.28 125.44,93.73 108.16,170.75" /><path
         id="path74"
         style="fill:#485ab2;fill-opacity:1;fill-rule:nonzero;stroke:none"
         d="m 3321.35,2661.43 c 2.82,19.51 -3.63,41.7 -17.6,56.97 l -263.86,-120.14 281.46,63.17" /><path
         id="path76"
         style="fill:#edf7fd;fill-opacity:1;fill-rule:nonzero;stroke:none"
         d="m 3173.41,3004.7 -168.65,-369.68 19.89,-43.69 279.1,127.07 -130.34,286.3" /><path
         id="path78"
         style="fill:#485ab2;fill-opacity:1;fill-rule:nonzero;stroke:none"
         d="m 3139,3051.43 c 20.66,-2.67 35.57,-31.01 34.41,-46.73 l -168.65,-369.68 -6.89,3.78 141.13,412.63" /><path
         id="path80"
         style="fill:#485ab2;fill-opacity:1;fill-rule:nonzero;stroke:none"
         d="m 2216.16,3046.45 c 5.66,-6.97 25.15,-16.28 41.14,-18.45 l 99.31,291.06 -140.45,-272.61" /><path
         id="path82"
         style="fill:#485ab2;fill-opacity:1;fill-rule:nonzero;stroke:none"
         d="m 1849.34,3248.27 v 0 c 0,0 10.61,-21.89 43.83,-35.42 l 174.97,256.37 -218.8,-220.95" /><path
         id="path84"
         style="fill:#485ab2;fill-opacity:1;fill-rule:nonzero;stroke:none"
         d="m 2811.71,2537.42 -510.94,174.76 101.79,297.62 510.94,-174.76 -101.79,-297.62" /><path
         id="path86"
         style="fill:#b9b8b7;fill-opacity:1;fill-rule:nonzero;stroke:none"
         d="m 2801.24,2555.73 -480.98,164.51 92.77,271.25 480.98,-164.5 -92.77,-271.26" /><path
         id="path88"
         style="fill:#e6232b;fill-opacity:1;fill-rule:nonzero;stroke:none"
         d="m 2485.58,2894.45 c -4.46,-13.06 -18.68,-20.03 -31.74,-15.56 -13.06,4.46 -20.03,18.68 -15.56,31.74 4.46,13.07 18.68,20.03 31.74,15.57 13.06,-4.47 20.03,-18.69 15.56,-31.75" /><path
         id="path90"
         style="fill:#49bd57;fill-opacity:1;fill-rule:nonzero;stroke:none"
         d="m 2437.04,2752.52 c -4.47,-13.06 -18.68,-20.03 -31.74,-15.56 -13.07,4.47 -20.04,18.68 -15.57,31.74 4.47,13.07 18.68,20.04 31.75,15.57 13.06,-4.47 20.03,-18.68 15.56,-31.75" /><path
         id="path92"
         style="fill:#f0f037;fill-opacity:1;fill-rule:nonzero;stroke:none"
         d="m 2461.31,2823.49 c -4.47,-13.07 -18.68,-20.04 -31.74,-15.57 -13.07,4.47 -20.03,18.68 -15.57,31.75 4.47,13.06 18.68,20.03 31.75,15.56 13.06,-4.47 20.03,-18.68 15.56,-31.74" /><path
         id="path94"
         style="fill:#516abc;fill-opacity:1;fill-rule:nonzero;stroke:none"
         d="m 2660.6,2682.74 -175.04,59.87 44.45,129.96 175.05,-59.87 -44.46,-129.96" /><path
         id="path96"
         style="fill:#39393a;fill-opacity:1;fill-rule:nonzero;stroke:none"
         d="m 2838.64,2782.25 -95.01,32.49 7.68,22.47 95.01,-32.5 -7.68,-22.46" /><path
         id="path98"
         style="fill:#39393a;fill-opacity:1;fill-rule:nonzero;stroke:none"
         d="m 2823.27,2737.32 -95.01,32.5 7.68,22.46 95.02,-32.5 -7.69,-22.46" /><path
         id="path100"
         style="fill:#39393a;fill-opacity:1;fill-rule:nonzero;stroke:none"
         d="m 2807.91,2692.4 -95.02,32.49 7.69,22.47 95.01,-32.5 -7.68,-22.46" /><path
         id="path102"
         style="fill:#39393a;fill-opacity:1;fill-rule:nonzero;stroke:none"
         d="m 2792.54,2647.47 -95.01,32.5 7.68,22.46 95.01,-32.5 -7.68,-22.46" /><path
         id="path104"
         style="fill:#39393a;fill-opacity:1;fill-rule:nonzero;stroke:none"
         d="m 2777.17,2602.54 -95.01,32.5 7.68,22.46 95.02,-32.49 -7.69,-22.47" /><path
         id="path106"
         style="fill:#a6c4e6;fill-opacity:1;fill-rule:nonzero;stroke:none"
         d="m 2189.9,2848.95 141.14,-48.27 -12.95,-37.86 -141.14,48.28 c -10.45,3.57 -16.03,14.94 -12.45,25.4 v 0 c 3.58,10.45 14.95,16.03 25.4,12.45" /><path
         id="path108"
         style="fill:#a6c4e6;fill-opacity:1;fill-rule:nonzero;stroke:none"
         d="m 2244.1,3007.43 141.14,-48.28 -12.95,-37.85 -141.13,48.27 c -10.46,3.57 -16.03,14.95 -12.46,25.4 3.58,10.45 14.95,16.03 25.4,12.46" /><path
         id="path110"
         style="fill:#a6c4e6;fill-opacity:1;fill-rule:nonzero;stroke:none"
         d="m 3024.37,2698.27 -141.14,48.27 12.95,37.86 141.14,-48.27 c 10.45,-3.58 16.03,-14.95 12.45,-25.41 v 0 c -3.58,-10.45 -14.95,-16.03 -25.4,-12.45" /><path
         id="path112"
         style="fill:#a6c4e6;fill-opacity:1;fill-rule:nonzero;stroke:none"
         d="m 2970.17,2539.8 -141.14,48.27 12.95,37.86 141.13,-48.28 c 10.46,-3.57 16.03,-14.95 12.46,-25.4 -3.58,-10.45 -14.95,-16.03 -25.4,-12.45" /><path
         id="path114"
         style="fill:#a6c4e6;fill-opacity:1;fill-rule:nonzero;stroke:none"
         d="m 2008.39,2300.89 h -0.01 L 2219.93,2190 1992.29,2344.02 c 1.32,-16.49 6.14,-31.04 16.1,-43.13" /><path
         id="path116"
         style="fill:#a6c4e6;fill-opacity:1;fill-rule:nonzero;stroke:none"
         d="m 2830.1,2057.46 -269.54,16.04 230.39,-40.29 0.01,0.01 c 15.28,3.47 28,12.02 39.14,24.24" /><path
         id="path118"
         style="fill:#a6c4e6;fill-opacity:1;fill-rule:nonzero;stroke:none"
         d="m 1893.17,3212.85 342.24,-129.05 -19.25,-37.35 z" /><path
         id="path120"
         style="fill:#a6c4e6;fill-opacity:1;fill-rule:nonzero;stroke:none"
         d="m 3025.58,2680.67 14.31,-82.41 -15.24,-6.93 -19.89,43.69 20.82,45.65" /><path
         id="path122"
         style="fill:#a6c4e6;fill-opacity:1;fill-rule:nonzero;stroke:none"
         d="m 1572.56,3532.48 291.27,-270.82 -22.92,-21.9 z" /><path
         id="path124"
         style="fill:#a6c4e6;fill-opacity:1;fill-rule:nonzero;stroke:none"
         d="m 3018.21,2593.4 34.34,7.71 71.23,-390.54 z" /><path
         id="path126"
         style="fill:#a6c4e6;fill-opacity:1;fill-rule:nonzero;stroke:none"
         d="m 1970.09,2188.26 -53.89,-252.83 -29.37,10.05 z" /><path
         id="path128"
         style="fill:#a6c4e6;fill-opacity:1;fill-rule:nonzero;stroke:none"
         d="m 2457.85,2006.9 -44.9,-241.37 -33.71,11.53 z" /><path
         id="path130"
         style="fill:#edf7fd;fill-opacity:1;fill-rule:nonzero;stroke:none"
         d="m 3094.31,4198 c -291.26,99.62 -587.38,4.95 -707.76,-347 -155.51,-454.68 -43.33,-574.26 347.01,-707.76 390.34,-133.51 552.25,-107.67 707.76,347 120.37,351.95 -55.74,608.14 -347.01,707.76" /><path
         id="path132"
         style="fill:#a6c4e6;fill-opacity:1;fill-rule:nonzero;stroke:none"
         d="m 2467.65,3781.74 c 120.38,351.95 416.5,446.63 707.76,347.01 62.53,-21.39 119.71,-50.04 169.83,-85.26 -65.4,68.15 -151.43,120.48 -250.93,154.51 -291.26,99.62 -587.38,4.95 -707.76,-347 -111.55,-326.16 -85.34,-479.88 82.47,-590.01 -91.69,106.34 -91.48,257.29 -1.37,520.75" /><path
         id="path134"
         style="fill:#b9b8b7;fill-opacity:1;fill-rule:nonzero;stroke:none"
         d="m 3042.4,4046.22 c -278.9,95.39 -559.45,13.49 -646.17,-240.05 -100.12,-292.74 -78.57,-434.19 363.81,-585.49 442.38,-151.31 546.05,-52.69 646.17,240.05 86.72,253.54 -84.91,490.1 -363.81,585.49" /><path
         id="path136"
         style="fill:#292827;fill-opacity:1;fill-rule:nonzero;stroke:none"
         d="m 3038.76,4035.58 c -271.7,92.93 -545.02,13.14 -629.5,-233.87 -97.55,-285.18 -76.55,-422.99 354.42,-570.39 430.98,-147.41 531.97,-51.33 629.51,233.86 84.48,247.01 -82.72,477.47 -354.43,570.4" /><path
         id="path138"
         style="fill:#656769;fill-opacity:1;fill-rule:nonzero;stroke:none"
         d="m 2409.26,3801.71 c 0.05,0.16 0.11,0.32 0.16,0.48 -0.06,-0.17 -0.11,-0.31 -0.16,-0.48 m 0.21,0.62 c 0.04,0.12 0.08,0.23 0.12,0.35 -0.04,-0.11 -0.08,-0.24 -0.12,-0.35 m 0.17,0.5 c 0.04,0.12 0.09,0.26 0.13,0.38 -0.04,-0.12 -0.09,-0.26 -0.13,-0.38 m 0.19,0.55 c 0.04,0.12 0.09,0.25 0.13,0.38 -0.04,-0.12 -0.09,-0.26 -0.13,-0.38 m 0.2,0.56 c 0.03,0.09 0.06,0.19 0.1,0.28 -0.04,-0.1 -0.07,-0.17 -0.1,-0.28 m 0.17,0.49 c 0.03,0.09 0.06,0.19 0.1,0.28 -0.04,-0.09 -0.07,-0.19 -0.1,-0.28 m 0.21,0.62 c 0.04,0.09 0.07,0.17 0.1,0.26 -0.03,-0.09 -0.06,-0.17 -0.1,-0.26 m 0.18,0.51 c 0.03,0.07 0.05,0.14 0.08,0.21 -0.03,-0.08 -0.05,-0.13 -0.08,-0.21 m 0.17,0.47 c 0.02,0.05 0.04,0.11 0.05,0.16 -0.01,-0.05 -0.04,-0.12 -0.05,-0.16 m 0.42,1.19 c 0.01,0.02 0.01,0.03 0.02,0.04 -0.01,-0.01 -0.01,-0.02 -0.02,-0.04" /><path
         id="path140"
         style="fill:#1b1919;fill-opacity:1;fill-rule:nonzero;stroke:none"
         d="m 3081.85,3162.82 c -80.31,0 -183.02,22.27 -318.17,68.5 v 0 c -301.55,103.14 -402.39,201.58 -402.34,349.09 0.02,63.31 18.63,135.66 47.92,221.3 v 0 c 0.05,0.17 0.1,0.31 0.16,0.48 0.02,0.05 0.03,0.09 0.05,0.14 0.04,0.11 0.08,0.24 0.12,0.35 0.01,0.05 0.03,0.1 0.05,0.15 0.04,0.12 0.09,0.26 0.13,0.38 0.02,0.06 0.04,0.11 0.06,0.17 0.04,0.12 0.09,0.26 0.13,0.38 0.03,0.06 0.04,0.11 0.07,0.18 0.03,0.11 0.06,0.18 0.1,0.28 0.02,0.08 0.04,0.13 0.07,0.21 0.03,0.09 0.06,0.19 0.1,0.28 0.04,0.12 0.07,0.23 0.11,0.34 0.04,0.09 0.07,0.17 0.1,0.26 0.03,0.09 0.05,0.17 0.08,0.25 0.03,0.08 0.05,0.13 0.08,0.21 0.03,0.09 0.06,0.17 0.09,0.26 0.01,0.04 0.04,0.11 0.05,0.16 0.13,0.34 0.25,0.69 0.37,1.03 0.01,0.02 0.01,0.03 0.02,0.04 47.26,132.32 149.47,215.53 276.32,248.99 -53.02,-38.24 -96.6,-90.72 -126.52,-157.71 -122.92,-275.2 -114.47,-414.34 301.41,-600.1 150.13,-67.05 260.18,-98.48 345.45,-98.48 7.83,0 15.46,0.26 22.88,0.79 -39.63,-25.04 -87.77,-37.93 -148.89,-37.93" /><path
         id="path142"
         style="fill:#b9b8b7;fill-opacity:1;fill-rule:nonzero;stroke:none"
         d="m 2386.55,3851 c 2.41,7.04 5,13.8 7.55,20.63 l -75.49,25.82 c -8.77,3 -18.26,-0.39 -21.22,-7.66 l -85.4,-209.42 c -4.14,-10.14 1.01,-21.4 11.56,-25 l 102.63,-35.11 c 9.86,65.87 29.98,141.88 60.37,230.74" /><path
         id="path144"
         style="fill:#292827;fill-opacity:1;fill-rule:nonzero;stroke:none"
         d="m 2346.61,3823.14 c -3.24,-9.47 -13.55,-14.52 -23.02,-11.28 -9.47,3.24 -14.52,13.54 -11.28,23.01 3.24,9.47 13.54,14.53 23.01,11.29 9.48,-3.24 14.53,-13.55 11.29,-23.02" /><path
         id="path146"
         style="fill:#485ab2;fill-opacity:1;fill-rule:nonzero;stroke:none"
         d="m 2324.86,3707.5 c -6.25,-18.27 -26.13,-28.02 -44.41,-21.77 -18.27,6.25 -28.02,26.13 -21.77,44.4 6.25,18.28 26.13,28.02 44.41,21.77 18.27,-6.25 28.02,-26.13 21.77,-44.4" /><path
         id="path148"
         style="fill:#292827;fill-opacity:1;fill-rule:nonzero;stroke:none"
         d="m 2311.74,3711.99 c -3.77,-11.03 -15.77,-16.92 -26.8,-13.15 -11.03,3.78 -16.91,15.78 -13.14,26.81 3.77,11.03 15.77,16.91 26.8,13.14 11.03,-3.77 16.91,-15.77 13.14,-26.8" /><path
         id="path150"
         style="fill:#b9b8b7;fill-opacity:1;fill-rule:nonzero;stroke:none"
         d="m 3535.35,3466.37 c 2.11,7.56 -3.31,16.06 -12.08,19.06 l -75.28,25.74 c -2.17,-6.96 -4.26,-13.89 -6.67,-20.93 -30.39,-88.86 -61.04,-161.27 -93.58,-219.38 l 102.43,-35.03 c 10.54,-3.61 21.5,2.13 24.45,12.69 l 60.73,217.85" /><path
         id="path152"
         style="fill:#292827;fill-opacity:1;fill-rule:nonzero;stroke:none"
         d="m 3455.63,3443.83 c -3.24,-9.47 1.81,-19.78 11.28,-23.02 9.47,-3.24 19.78,1.81 23.02,11.29 3.24,9.47 -1.81,19.77 -11.29,23.01 -9.47,3.24 -19.77,-1.81 -23.01,-11.28" /><path
         id="path154"
         style="fill:#485ab2;fill-opacity:1;fill-rule:nonzero;stroke:none"
         d="m 3402,3339.09 c -6.25,-18.28 3.5,-38.16 21.77,-44.41 18.28,-6.25 38.16,3.5 44.41,21.77 6.25,18.28 -3.5,38.16 -21.77,44.41 -18.28,6.25 -38.16,-3.5 -44.41,-21.77" /><path
         id="path156"
         style="fill:#292827;fill-opacity:1;fill-rule:nonzero;stroke:none"
         d="m 3415.12,3334.6 c -3.77,-11.03 2.11,-23.03 13.14,-26.8 11.03,-3.77 23.03,2.11 26.8,13.14 3.77,11.03 -2.11,23.03 -13.14,26.8 -11.03,3.77 -23.03,-2.11 -26.8,-13.14" /><path
         id="path158"
         style="fill:#3b3b3c;fill-opacity:1;fill-rule:nonzero;stroke:none"
         d="m 3317.59,3575.22 c -33.24,0 -37.44,69.72 -83.01,125.2 -30.11,36.67 -114.28,93.25 -83.54,134.26 5.46,7.29 13.39,10.54 22.93,10.54 41.37,0 113.02,-61.07 145.02,-118.18 39.38,-70.28 47.3,-132.63 12.68,-148.34 -5.25,-2.38 -9.9,-3.48 -14.08,-3.48" /><path
         id="path160"
         style="fill:#ffffff;fill-opacity:1;fill-rule:nonzero;stroke:none"
         d="m 3659.52,1059.89 c 49.48,1.13 87.1,6.4 87.1,6.4 0,0 -37.62,5.26 -87.1,6.4 -6.5,0.15 -11.76,5.4 -11.91,11.9 -1.13,49.48 -6.4,87.11 -6.4,87.11 0,0 -5.26,-37.63 -6.39,-87.11 -0.15,-6.5 -5.41,-11.75 -11.91,-11.9 -49.48,-1.14 -87.1,-6.4 -87.1,-6.4 0,0 37.62,-5.27 87.1,-6.4 6.5,-0.15 11.76,-5.4 11.91,-11.91 1.13,-49.468 6.39,-87.101 6.39,-87.101 0,0 5.27,37.633 6.4,87.101 0.15,6.51 5.41,11.76 11.91,11.91" /><path
         id="path162"
         style="fill:#ffffff;fill-opacity:1;fill-rule:nonzero;stroke:none"
         d="m 4278.36,1939.08 c 49.47,1.13 87.1,6.4 87.1,6.4 0,0 -37.63,5.26 -87.1,6.4 -6.5,0.15 -11.76,5.4 -11.91,11.9 -1.13,49.48 -6.4,87.11 -6.4,87.11 0,0 -5.26,-37.63 -6.4,-87.11 -0.14,-6.5 -5.4,-11.75 -11.9,-11.9 -49.48,-1.14 -87.1,-6.4 -87.1,-6.4 0,0 37.62,-5.27 87.1,-6.4 6.5,-0.15 11.76,-5.4 11.9,-11.91 1.14,-49.47 6.4,-87.1 6.4,-87.1 0,0 5.27,37.63 6.4,87.1 0.15,6.51 5.41,11.76 11.91,11.91" /><path
         id="path164"
         style="fill:#ffffff;fill-opacity:1;fill-rule:nonzero;stroke:none"
         d="m 789.809,3761.51 c 49.476,1.14 87.105,6.4 87.105,6.4 0,0 -37.629,5.27 -87.105,6.4 -6.5,0.15 -11.754,5.4 -11.907,11.91 -1.129,49.47 -6.398,87.1 -6.398,87.1 0,0 -5.266,-37.63 -6.399,-87.1 -0.148,-6.51 -5.402,-11.76 -11.902,-11.91 -49.48,-1.13 -87.105,-6.4 -87.105,-6.4 0,0 37.625,-5.26 87.105,-6.4 6.5,-0.15 11.754,-5.4 11.902,-11.9 1.133,-49.48 6.399,-87.11 6.399,-87.11 0,0 5.269,37.63 6.398,87.11 0.153,6.5 5.407,11.75 11.907,11.9" /><path
         id="path166"
         style="fill:#ffffff;fill-opacity:1;fill-rule:nonzero;stroke:none"
         d="m 1353.54,715.898 c 49.48,1.141 87.11,6.403 87.11,6.403 0,0 -37.63,5.269 -87.11,6.398 -6.5,0.153 -11.75,5.403 -11.9,11.903 -1.13,49.48 -6.4,87.109 -6.4,87.109 0,0 -5.27,-37.629 -6.4,-87.109 -0.15,-6.5 -5.4,-11.75 -11.9,-11.903 -49.48,-1.129 -87.11,-6.398 -87.11,-6.398 0,0 37.63,-5.262 87.11,-6.403 6.5,-0.148 11.75,-5.398 11.9,-11.898 1.13,-49.48 6.4,-87.109 6.4,-87.109 0,0 5.27,37.629 6.4,87.109 0.15,6.5 5.4,11.75 11.9,11.898" /><path
         id="path168"
         style="fill:#ffffff;fill-opacity:1;fill-rule:nonzero;stroke:none"
         d="m 4172.95,3391.8 c 49.48,1.13 87.1,6.4 87.1,6.4 0,0 -37.62,5.27 -87.1,6.4 -6.5,0.15 -11.76,5.4 -11.91,11.9 -1.13,49.48 -6.39,87.11 -6.39,87.11 0,0 -5.27,-37.63 -6.4,-87.11 -0.15,-6.5 -5.41,-11.75 -11.91,-11.9 -49.48,-1.13 -87.1,-6.4 -87.1,-6.4 0,0 37.62,-5.27 87.1,-6.4 6.5,-0.15 11.76,-5.4 11.91,-11.9 1.13,-49.48 6.4,-87.11 6.4,-87.11 0,0 5.26,37.63 6.39,87.11 0.15,6.5 5.41,11.75 11.91,11.9" /><path
         id="path170"
         style="fill:#ffffff;fill-opacity:1;fill-rule:nonzero;stroke:none"
         d="m 1046.61,2690.79 c 49.47,1.13 87.1,6.4 87.1,6.4 0,0 -37.63,5.26 -87.1,6.4 -6.51,0.15 -11.76,5.4 -11.91,11.9 -1.13,49.48 -6.4,87.11 -6.4,87.11 0,0 -5.26,-37.63 -6.4,-87.11 -0.15,-6.5 -5.4,-11.75 -11.9,-11.9 -49.477,-1.14 -87.105,-6.4 -87.105,-6.4 0,0 37.628,-5.27 87.105,-6.4 6.5,-0.15 11.75,-5.4 11.9,-11.91 1.14,-49.47 6.4,-87.1 6.4,-87.1 0,0 5.27,37.63 6.4,87.1 0.15,6.51 5.4,11.76 11.91,11.91" /><path
         id="path172"
         style="fill:#ffffff;fill-opacity:1;fill-rule:nonzero;stroke:none"
         d="m 1891.65,4417.05 c 49.48,1.13 87.11,6.4 87.11,6.4 0,0 -37.63,5.26 -87.11,6.39 -6.5,0.16 -11.75,5.41 -11.9,11.91 -1.13,49.48 -6.4,87.11 -6.4,87.11 0,0 -5.27,-37.63 -6.4,-87.11 -0.15,-6.5 -5.4,-11.75 -11.9,-11.91 -49.48,-1.13 -87.11,-6.39 -87.11,-6.39 0,0 37.63,-5.27 87.11,-6.4 6.5,-0.15 11.75,-5.41 11.9,-11.91 1.13,-49.48 6.4,-87.1 6.4,-87.1 0,0 5.27,37.62 6.4,87.1 0.15,6.5 5.4,11.76 11.9,11.91" /><path
         id="path174"
         style="fill:#ffffff;fill-opacity:1;fill-rule:nonzero;stroke:none"
         d="m 3864.16,3778.08 c 13.88,-9.38 25.3,-15.31 25.3,-15.31 0,0 -9.36,8.83 -22.79,18.85 -1.77,1.31 -2.19,3.79 -0.96,5.62 9.39,13.88 15.32,25.3 15.32,25.3 0,0 -8.83,-9.36 -18.85,-22.79 -1.31,-1.77 -3.79,-2.19 -5.62,-0.96 -13.88,9.39 -25.3,15.32 -25.3,15.32 0,0 9.35,-8.83 22.79,-18.85 1.77,-1.31 2.19,-3.79 0.95,-5.62 -9.39,-13.88 -15.31,-25.3 -15.31,-25.3 0,0 8.83,9.35 18.85,22.79 1.31,1.77 3.79,2.19 5.62,0.95" /><path
         id="path176"
         style="fill:#ffffff;fill-opacity:1;fill-rule:nonzero;stroke:none"
         d="m 2111.87,4186.08 c 13.88,-9.39 25.3,-15.31 25.3,-15.31 0,0 -9.35,8.83 -22.79,18.84 -1.77,1.32 -2.19,3.8 -0.95,5.62 9.39,13.88 15.31,25.3 15.31,25.3 0,0 -8.83,-9.35 -18.85,-22.79 -1.31,-1.76 -3.79,-2.19 -5.62,-0.95 -13.88,9.39 -25.3,15.31 -25.3,15.31 0,0 9.36,-8.83 22.79,-18.85 1.77,-1.31 2.19,-3.79 0.96,-5.61 -9.39,-13.89 -15.32,-25.3 -15.32,-25.3 0,0 8.84,9.35 18.85,22.79 1.32,1.76 3.8,2.18 5.62,0.95" /><path
         id="path178"
         style="fill:#ffffff;fill-opacity:1;fill-rule:nonzero;stroke:none"
         d="m 1061.2,3124.29 c 13.88,-9.39 25.3,-15.31 25.3,-15.31 0,0 -9.35,8.83 -22.79,18.85 -1.77,1.31 -2.19,3.79 -0.95,5.62 9.39,13.88 15.31,25.3 15.31,25.3 0,0 -8.83,-9.36 -18.85,-22.79 -1.31,-1.77 -3.79,-2.19 -5.62,-0.96 -13.88,9.39 -25.3,15.32 -25.3,15.32 0,0 9.36,-8.84 22.79,-18.85 1.77,-1.32 2.19,-3.8 0.96,-5.62 -9.39,-13.88 -15.32,-25.3 -15.32,-25.3 0,0 8.84,9.35 18.85,22.79 1.32,1.77 3.8,2.19 5.62,0.95" /><path
         id="path180"
         style="fill:#ffffff;fill-opacity:1;fill-rule:nonzero;stroke:none"
         d="m 1563.35,2768.26 c 13.89,-9.39 25.31,-15.32 25.31,-15.32 0,0 -9.36,8.83 -22.8,18.85 -1.76,1.31 -2.18,3.8 -0.95,5.62 9.39,13.88 15.31,25.3 15.31,25.3 0,0 -8.83,-9.35 -18.84,-22.79 -1.32,-1.77 -3.8,-2.19 -5.62,-0.95 -13.88,9.38 -25.3,15.31 -25.3,15.31 0,0 9.35,-8.83 22.79,-18.85 1.76,-1.31 2.18,-3.79 0.95,-5.62 -9.39,-13.88 -15.31,-25.3 -15.31,-25.3 0,0 8.83,9.36 18.84,22.79 1.32,1.77 3.8,2.19 5.62,0.96" /><path
         id="path182"
         style="fill:#ffffff;fill-opacity:1;fill-rule:nonzero;stroke:none"
         d="m 1254.15,1247.31 c 13.88,-9.39 25.3,-15.31 25.3,-15.31 0,0 -9.35,8.83 -22.79,18.85 -1.76,1.31 -2.18,3.79 -0.95,5.62 9.39,13.88 15.31,25.3 15.31,25.3 0,0 -8.83,-9.36 -18.84,-22.79 -1.32,-1.77 -3.8,-2.19 -5.62,-0.96 -13.88,9.39 -25.3,15.32 -25.3,15.32 0,0 9.35,-8.84 22.79,-18.85 1.76,-1.32 2.18,-3.8 0.95,-5.62 -9.39,-13.88 -15.31,-25.3 -15.31,-25.3 0,0 8.83,9.35 18.84,22.79 1.32,1.77 3.8,2.19 5.62,0.95" /><path
         id="path184"
         style="fill:#ffffff;fill-opacity:1;fill-rule:nonzero;stroke:none"
         d="m 3779.52,1615.76 c 13.88,-9.38 25.3,-15.31 25.3,-15.31 0,0 -9.35,8.83 -22.79,18.85 -1.77,1.31 -2.19,3.79 -0.95,5.62 9.39,13.88 15.31,25.3 15.31,25.3 0,0 -8.83,-9.36 -18.85,-22.79 -1.31,-1.77 -3.79,-2.19 -5.62,-0.96 -13.88,9.39 -25.3,15.32 -25.3,15.32 0,0 9.36,-8.83 22.79,-18.85 1.77,-1.31 2.19,-3.8 0.96,-5.62 -9.39,-13.88 -15.32,-25.3 -15.32,-25.3 0,0 8.84,9.35 18.85,22.79 1.32,1.77 3.8,2.19 5.62,0.95" /><path
         id="path186"
         style="fill:#ffffff;fill-opacity:1;fill-rule:nonzero;stroke:none"
         d="m 4158.44,2205.22 c 13.88,-9.39 25.3,-15.32 25.3,-15.32 0,0 -9.35,8.84 -22.79,18.85 -1.76,1.32 -2.18,3.8 -0.95,5.62 9.39,13.88 15.31,25.3 15.31,25.3 0,0 -8.83,-9.35 -18.84,-22.79 -1.32,-1.77 -3.8,-2.19 -5.62,-0.95 -13.88,9.39 -25.3,15.31 -25.3,15.31 0,0 9.35,-8.83 22.79,-18.85 1.76,-1.31 2.18,-3.79 0.95,-5.62 -9.39,-13.88 -15.31,-25.3 -15.31,-25.3 0,0 8.83,9.36 18.84,22.79 1.32,1.77 3.8,2.19 5.62,0.96" /><path
         id="path188"
         style="fill:#a5b7c7;fill-opacity:1;fill-rule:nonzero;stroke:none"
         d="m 2601.04,345.391 c -4.32,-4.442 -8.03,-9.309 -11.08,-14.539 l -4.65,2.418 c -0.67,2.972 -3.5,5.019 -6.59,4.66 -3.31,-0.391 -5.68,-3.391 -5.29,-6.7 0.39,-3.308 3.39,-5.679 6.7,-5.289 l 1.83,0.52 4.52,-2.34 c -2.51,-5.539 -4.33,-11.383 -5.4,-17.441 l 7.47,-1.309 c 2.3,13.059 8.49,25.059 17.92,34.719 l -5.43,5.301" /><path
         id="path190"
         style="fill:#a5b7c7;fill-opacity:1;fill-rule:nonzero;stroke:none"
         d="m 2655.92,368.41 c -1.71,0 -3.41,-0.058 -5.1,-0.168 l -0.73,6.258 c 1.87,1.492 2.95,3.891 2.65,6.441 -0.46,3.93 -4.02,6.739 -7.95,6.278 -3.93,-0.457 -6.74,-4.02 -6.28,-7.949 0.3,-2.54 1.89,-4.61 4.05,-5.641 l 0.73,-6.238 c -7.14,-1.161 -14.03,-3.321 -20.6,-6.461 l 3.27,-6.84 c 9.35,4.469 19.42,6.742 29.96,6.742 4.96,0 9.93,-0.531 14.75,-1.582 l 1.61,7.41 c -5.35,1.16 -10.86,1.75 -16.36,1.75" /><path
         id="path192"
         style="fill:#a5b7c7;fill-opacity:1;fill-rule:nonzero;stroke:none"
         d="m 2721.94,342.93 c 3.31,0.41 5.66,3.422 5.26,6.73 -0.41,3.309 -3.42,5.66 -6.73,5.25 -3.09,-0.379 -5.35,-3.031 -5.29,-6.078 l -4.16,-3.641 c -4.18,4.301 -8.9,8.129 -14.08,11.399 l -4.04,-6.418 c 11.34,-7.141 20.2,-17.262 25.63,-29.25 l 6.91,3.129 c -2.51,5.539 -5.68,10.719 -9.42,15.449 l 4.02,3.512 1.9,-0.082" /><path
         id="path194"
         style="fill:#a5b7c7;fill-opacity:1;fill-rule:nonzero;stroke:none"
         d="m 2650.44,266.32 c -3.85,-0.23 -7.75,-0.34 -11.57,-0.34 -8.8,0 -17.33,0.602 -24.78,1.79 -3.91,0.621 -8.46,1.55 -12.71,2.921 10.47,-18.609 30.7,-31.25 53.89,-31.25 28.55,0 52.62,19.161 59.5,45.028 -6.82,-4.489 -15.06,-8.25 -24.59,-11.219 -11.79,-3.68 -25.54,-6.07 -39.74,-6.93" /><path
         id="path196"
         style="fill:#a5b7c7;fill-opacity:1;fill-rule:nonzero;stroke:none"
         d="m 2681.7,297.18 c -7.5,0 -13.6,6.101 -13.6,13.601 0,7.5 6.1,13.61 13.6,13.61 7.5,0 13.6,-6.11 13.6,-13.61 0,-7.5 -6.1,-13.601 -13.6,-13.601 z m -47.38,-9.078 c -10.19,0 -18.49,8.289 -18.49,18.488 0,10.199 8.3,18.5 18.49,18.5 10.2,0 18.5,-8.301 18.5,-18.5 0,-10.199 -8.3,-18.488 -18.5,-18.488 z m 21.6,65.14 c -33.52,0 -60.8,-26.66 -60.8,-59.433 0,-4.25 0.46,-8.489 1.37,-12.61 6.74,-4.828 27.06,-8.898 53.48,-7.308 28.79,1.73 52.97,9.57 66.72,21.578 -0.05,1.953 -0.21,3.902 -0.45,5.82 -3.8,29.621 -29.73,51.953 -60.32,51.953" /><path
         id="path198"
         style="fill:#a5b7c7;fill-opacity:1;fill-rule:nonzero;stroke:none"
         d="m 2815.95,334.57 c -2.94,1.16 -8.05,3.09 -13.82,2.379 -5.51,-0.687 -8.44,-3.41 -8.44,-10.07 v -8.66 h 22.28 v -17.168 h -22.28 V 246.5 h -19.32 v 54.551 h -13.39 v 17.168 h 13.39 v 8.883 c 0,16.796 8.96,27.828 25.69,27.828 6.42,0 11.57,-1.219 15.9,-3.078 l -0.01,-17.282" /><path
         id="path200"
         style="fill:#a5b7c7;fill-opacity:1;fill-rule:nonzero;stroke:none"
         d="m 2862.98,301.25 c -1.77,0.301 -3.58,0.469 -5.26,0.469 -8.96,0 -15.1,-5.477 -15.1,-16.137 V 246.5 h -19.32 v 71.719 h 18.73 v -7.84 c 4.51,6.73 11.39,9.762 20.2,9.762 4.15,0 8.48,-1.27 10.95,-3.36 l -10.2,-15.531" /><path
         id="path202"
         style="fill:#a5b7c7;fill-opacity:1;fill-rule:nonzero;stroke:none"
         d="m 2888.51,289.129 h 31.75 c -1.78,9.18 -7.33,14.363 -15.62,14.363 -9.1,0 -14.43,-5.48 -16.13,-14.363 z m 51.14,-6.66 c 0,-2.219 -0.15,-4.879 -0.37,-6.508 h -50.85 c 2.08,-10.359 9.33,-14.879 18.43,-14.879 6.22,0 12.96,2.52 18.14,6.879 l 11.32,-12.43 c -8.14,-7.48 -18.5,-10.883 -30.57,-10.883 -21.98,0 -37.22,14.954 -37.22,37.532 0,22.57 14.8,37.961 36.26,37.961 20.65,0 34.79,-15.321 34.86,-37.672" /><path
         id="path204"
         style="fill:#a5b7c7;fill-opacity:1;fill-rule:nonzero;stroke:none"
         d="m 2965.04,289.129 h 31.75 c -1.77,9.18 -7.33,14.363 -15.61,14.363 -9.11,0 -14.44,-5.48 -16.14,-14.363 z m 51.14,-6.66 c 0,-2.219 -0.14,-4.879 -0.37,-6.508 h -50.84 c 2.07,-10.359 9.32,-14.879 18.43,-14.879 6.21,0 12.95,2.52 18.13,6.879 l 11.32,-12.43 c -8.14,-7.48 -18.5,-10.883 -30.56,-10.883 -21.99,0 -37.23,14.954 -37.23,37.532 0,22.57 14.8,37.961 36.26,37.961 20.65,0 34.79,-15.321 34.86,-37.672" /><path
         id="path206"
         style="fill:#a5b7c7;fill-opacity:1;fill-rule:nonzero;stroke:none"
         d="m 3042.87,282.398 c 0,-11.328 7.48,-19.757 18.43,-19.757 11.4,0 18.5,8.8 18.5,19.757 0,10.954 -7.1,19.762 -18.5,19.762 -10.95,0 -18.43,-8.441 -18.43,-19.762 z m 56.77,0 c 0,-21.539 -14.95,-37.75 -34.71,-37.75 -9.62,0 -16.43,3.782 -21.1,9.332 v -37.089 h -19.24 v 101.328 h 18.87 v -7.918 c 4.67,5.847 11.55,9.84 21.4,9.84 19.83,0 34.78,-16.2 34.78,-37.743" /><path
         id="path208"
         style="fill:#a5b7c7;fill-opacity:1;fill-rule:nonzero;stroke:none"
         d="m 3128.09,246.5 h -19.32 v 71.719 h 19.32 z m 2.59,95.18 c 0,-6.95 -5.41,-12.282 -12.36,-12.282 -6.96,0 -12.29,5.332 -12.29,12.282 0,6.961 5.33,12.441 12.29,12.441 6.95,0 12.36,-5.48 12.36,-12.441" /><path
         id="path210"
         style="fill:#a5b7c7;fill-opacity:1;fill-rule:nonzero;stroke:none"
         d="m 3160.32,292.68 27.02,25.539 h 23.68 l -34.78,-33.75 35,-37.969 h -23.75 l -27.17,29.012 V 246.5 H 3141 v 106.582 h 19.32 V 292.68" /><path
         id="path212"
         style="fill:#a5b7c7;fill-opacity:1;fill-rule:nonzero;stroke:none"
         d="m 1844.12,266.34 v 32.082 c -3.95,6.148 -12.44,11.418 -21.24,11.418 -14.2,0 -22.7,-11.711 -22.7,-27.391 0,-15.668 8.5,-27.238 22.7,-27.238 8.8,0 17.29,4.969 21.24,11.129 z m 0,-19.192 v 10.551 c -5.27,-7.179 -13.91,-12.308 -23.87,-12.308 -18.46,0 -31.49,14.058 -31.49,37.058 0,22.563 12.89,37.211 31.49,37.211 9.52,0 18.16,-4.691 23.87,-12.449 v 37.641 h 10.99 v -97.704 h -10.99" /><path
         id="path214"
         style="fill:#a5b7c7;fill-opacity:1;fill-rule:nonzero;stroke:none"
         d="m 1904.04,310.57 c -15.09,0 -22.56,-12.738 -23.15,-23.578 h 46.43 c -0.14,10.547 -7.17,23.578 -23.28,23.578 z m -34.72,-27.968 c 0,20.5 14.65,37.058 34.86,37.058 21.39,0 33.98,-16.699 33.98,-37.941 v -2.789 h -57.27 c 0.88,-13.321 10.26,-24.461 25.49,-24.461 8.05,0 16.26,3.23 21.82,8.941 l 5.28,-7.18 c -7.04,-7.031 -16.55,-10.839 -28.13,-10.839 -20.94,0 -36.03,15.089 -36.03,37.211" /><path
         id="path216"
         style="fill:#a5b7c7;fill-opacity:1;fill-rule:nonzero;stroke:none"
         d="m 1946.07,256.531 5.71,7.899 c 4.69,-5.418 13.63,-10.098 23.29,-10.098 10.84,0 16.7,5.117 16.7,12.156 0,17.133 -43.79,6.594 -43.79,32.813 0,10.98 9.51,20.359 26.36,20.359 12.01,0 20.51,-4.539 26.22,-10.262 l -5.13,-7.617 c -4.24,5.129 -12.01,8.938 -21.09,8.938 -9.67,0 -15.67,-4.828 -15.67,-11.129 0,-15.531 43.79,-5.27 43.79,-32.809 0,-11.871 -9.52,-21.39 -27.83,-21.39 -11.57,0 -21.38,3.519 -28.56,11.14" /><path
         id="path218"
         style="fill:#a5b7c7;fill-opacity:1;fill-rule:nonzero;stroke:none"
         d="m 2016.67,247.148 v 70.754 h 10.99 v -70.754 z m -1.9,88.184 c 0,4.098 3.37,7.469 7.32,7.469 4.1,0 7.47,-3.371 7.47,-7.469 0,-4.102 -3.37,-7.32 -7.47,-7.32 -3.95,0 -7.32,3.218 -7.32,7.32" /><path
         id="path220"
         style="fill:#a5b7c7;fill-opacity:1;fill-rule:nonzero;stroke:none"
         d="m 2097.09,267.512 v 30.91 c -3.81,6.148 -12.31,11.418 -21.1,11.418 -14.21,0 -22.7,-11.281 -22.7,-26.949 0,-15.532 8.49,-26.95 22.7,-26.95 8.79,0 17.29,5.418 21.1,11.571 z m -51.27,-38.524 5.57,8.203 c 5.85,-7.031 12.89,-9.671 22.99,-9.671 11.72,0 22.71,5.71 22.71,21.242 v 10.109 c -5.13,-7.18 -13.77,-12.601 -23.74,-12.601 -18.45,0 -31.49,13.769 -31.49,36.621 0,22.711 12.89,36.769 31.49,36.769 9.53,0 18.02,-4.691 23.74,-12.449 v 10.691 h 10.98 v -68.703 c 0,-23.437 -16.4,-30.758 -33.69,-30.758 -12.01,0 -20.21,2.34 -28.56,10.547" /><path
         id="path222"
         style="fill:#a5b7c7;fill-opacity:1;fill-rule:nonzero;stroke:none"
         d="m 2174.13,247.148 v 46.293 c 0,12.45 -6.29,16.399 -15.82,16.399 -8.64,0 -16.84,-5.27 -20.94,-10.981 v -51.711 h -10.99 v 70.754 h 10.99 v -10.261 c 4.98,5.859 14.64,12.019 25.19,12.019 14.8,0 22.56,-7.469 22.56,-22.851 v -49.661 h -10.99" /><path
         id="path224"
         style="fill:#a5b7c7;fill-opacity:1;fill-rule:nonzero;stroke:none"
         d="m 2234.04,310.57 c -15.09,0 -22.56,-12.738 -23.14,-23.578 h 46.43 c -0.15,10.547 -7.18,23.578 -23.29,23.578 z m -34.72,-27.968 c 0,20.5 14.65,37.058 34.87,37.058 21.38,0 33.98,-16.699 33.98,-37.941 v -2.789 h -57.27 c 0.88,-13.321 10.25,-24.461 25.49,-24.461 8.05,0 16.25,3.23 21.82,8.941 l 5.27,-7.18 c -7.03,-7.031 -16.55,-10.839 -28.12,-10.839 -20.95,0 -36.04,15.089 -36.04,37.211" /><path
         id="path226"
         style="fill:#a5b7c7;fill-opacity:1;fill-rule:nonzero;stroke:none"
         d="m 2333.5,266.34 v 32.082 c -3.96,6.148 -12.45,11.418 -21.24,11.418 -14.21,0 -22.7,-11.711 -22.7,-27.391 0,-15.668 8.49,-27.238 22.7,-27.238 8.79,0 17.28,4.969 21.24,11.129 z m 0,-19.192 v 10.551 c -5.27,-7.179 -13.92,-12.308 -23.88,-12.308 -18.45,0 -31.49,14.058 -31.49,37.058 0,22.563 12.89,37.211 31.49,37.211 9.52,0 18.17,-4.691 23.88,-12.449 v 37.641 h 10.99 v -97.704 h -10.99" /><path
         id="path228"
         style="fill:#a5b7c7;fill-opacity:1;fill-rule:nonzero;stroke:none"
         d="m 2429,255.211 c 14.36,0 22.85,11.57 22.85,27.238 0,15.68 -8.49,27.391 -22.85,27.391 -8.64,0 -17.28,-5.27 -21.1,-11.418 V 266.34 c 3.82,-6.16 12.46,-11.129 21.1,-11.129 z m -32.08,-8.063 v 97.704 h 10.98 v -37.641 c 5.72,7.758 14.21,12.449 23.88,12.449 18.46,0 31.5,-14.648 31.5,-37.211 0,-23 -13.04,-37.058 -31.5,-37.058 -9.96,0 -18.6,5.129 -23.88,12.308 v -10.551 h -10.98" /><path
         id="path230"
         style="fill:#a5b7c7;fill-opacity:1;fill-rule:nonzero;stroke:none"
         d="m 2475.29,229.43 c 1.61,-0.739 4.24,-1.18 6,-1.18 4.83,0 8.06,1.609 10.55,7.469 l 4.69,10.703 -29.59,71.48 h 11.86 l 23.58,-58.011 23.44,58.011 h 12.01 l -35.45,-85.113 c -4.24,-10.25 -11.42,-14.207 -20.8,-14.348 -2.34,0 -6,0.438 -8.05,1.028 l 1.76,9.961" /><path
         id="path232"
         style="fill:#1e2328;fill-opacity:1;fill-rule:nonzero;stroke:none"
         d="m 2601.04,345.391 c -4.32,-4.442 -8.03,-9.309 -11.08,-14.539 l -4.65,2.418 c -0.67,2.972 -3.5,5.019 -6.59,4.66 -3.31,-0.391 -5.68,-3.391 -5.29,-6.7 0.39,-3.308 3.39,-5.679 6.7,-5.289 l 1.83,0.52 4.52,-2.34 c -2.51,-5.539 -4.33,-11.383 -5.4,-17.441 l 7.47,-1.309 c 2.3,13.059 8.49,25.059 17.92,34.719 l -5.43,5.301" /><path
         id="path234"
         style="fill:#1e2328;fill-opacity:1;fill-rule:nonzero;stroke:none"
         d="m 2655.92,368.41 c -1.71,0 -3.41,-0.058 -5.1,-0.168 l -0.73,6.258 c 1.87,1.492 2.95,3.891 2.65,6.441 -0.46,3.93 -4.02,6.739 -7.95,6.278 -3.93,-0.457 -6.74,-4.02 -6.28,-7.949 0.3,-2.54 1.89,-4.61 4.05,-5.641 l 0.73,-6.238 c -7.14,-1.161 -14.03,-3.321 -20.6,-6.461 l 3.27,-6.84 c 9.35,4.469 19.42,6.742 29.96,6.742 4.96,0 9.93,-0.531 14.75,-1.582 l 1.61,7.41 c -5.35,1.16 -10.86,1.75 -16.36,1.75" /><path
         id="path236"
         style="fill:#1e2328;fill-opacity:1;fill-rule:nonzero;stroke:none"
         d="m 2721.94,342.93 c 3.31,0.41 5.66,3.422 5.26,6.73 -0.41,3.309 -3.42,5.66 -6.73,5.25 -3.09,-0.379 -5.35,-3.031 -5.29,-6.078 l -4.16,-3.641 c -4.18,4.301 -8.9,8.129 -14.08,11.399 l -4.04,-6.418 c 11.34,-7.141 20.2,-17.262 25.63,-29.25 l 6.91,3.129 c -2.51,5.539 -5.68,10.719 -9.42,15.449 l 4.02,3.512 1.9,-0.082" /><path
         id="path238"
         style="fill:#1e2328;fill-opacity:1;fill-rule:nonzero;stroke:none"
         d="m 2650.44,266.32 c -3.85,-0.23 -7.75,-0.34 -11.57,-0.34 -8.8,0 -17.33,0.602 -24.78,1.79 -3.91,0.621 -8.46,1.55 -12.71,2.921 10.47,-18.609 30.7,-31.25 53.89,-31.25 28.55,0 52.62,19.161 59.5,45.028 -6.82,-4.489 -15.06,-8.25 -24.59,-11.219 -11.79,-3.68 -25.54,-6.07 -39.74,-6.93" /><path
         id="path240"
         style="fill:#1e2328;fill-opacity:1;fill-rule:nonzero;stroke:none"
         d="m 2681.7,297.18 c -7.5,0 -13.6,6.101 -13.6,13.601 0,7.5 6.1,13.61 13.6,13.61 7.5,0 13.6,-6.11 13.6,-13.61 0,-7.5 -6.1,-13.601 -13.6,-13.601 z m -47.38,-9.078 c -10.19,0 -18.49,8.289 -18.49,18.488 0,10.199 8.3,18.5 18.49,18.5 10.2,0 18.5,-8.301 18.5,-18.5 0,-10.199 -8.3,-18.488 -18.5,-18.488 z m 21.6,65.14 c -33.52,0 -60.8,-26.66 -60.8,-59.433 0,-4.25 0.46,-8.489 1.37,-12.61 6.74,-4.828 27.06,-8.898 53.48,-7.308 28.79,1.73 52.97,9.57 66.72,21.578 -0.05,1.953 -0.21,3.902 -0.45,5.82 -3.8,29.621 -29.73,51.953 -60.32,51.953" /><path
         id="path242"
         style="fill:#1e2328;fill-opacity:1;fill-rule:nonzero;stroke:none"
         d="m 2815.95,334.57 c -2.94,1.16 -8.05,3.09 -13.82,2.379 -5.51,-0.687 -8.44,-3.41 -8.44,-10.07 v -8.66 h 22.28 v -17.168 h -22.28 V 246.5 h -19.32 v 54.551 h -13.39 v 17.168 h 13.39 v 8.883 c 0,16.796 8.96,27.828 25.69,27.828 6.42,0 11.57,-1.219 15.9,-3.078 l -0.01,-17.282" /><path
         id="path244"
         style="fill:#1e2328;fill-opacity:1;fill-rule:nonzero;stroke:none"
         d="m 2862.98,301.25 c -1.77,0.301 -3.58,0.469 -5.26,0.469 -8.96,0 -15.1,-5.477 -15.1,-16.137 V 246.5 h -19.32 v 71.719 h 18.73 v -7.84 c 4.51,6.73 11.39,9.762 20.2,9.762 4.15,0 8.48,-1.27 10.95,-3.36 l -10.2,-15.531" /><path
         id="path246"
         style="fill:#1e2328;fill-opacity:1;fill-rule:nonzero;stroke:none"
         d="m 2888.51,289.129 h 31.75 c -1.78,9.18 -7.33,14.363 -15.62,14.363 -9.1,0 -14.43,-5.48 -16.13,-14.363 z m 51.14,-6.66 c 0,-2.219 -0.15,-4.879 -0.37,-6.508 h -50.85 c 2.08,-10.359 9.33,-14.879 18.43,-14.879 6.22,0 12.96,2.52 18.14,6.879 l 11.32,-12.43 c -8.14,-7.48 -18.5,-10.883 -30.57,-10.883 -21.98,0 -37.22,14.954 -37.22,37.532 0,22.57 14.8,37.961 36.26,37.961 20.65,0 34.79,-15.321 34.86,-37.672" /><path
         id="path248"
         style="fill:#1e2328;fill-opacity:1;fill-rule:nonzero;stroke:none"
         d="m 2965.04,289.129 h 31.75 c -1.77,9.18 -7.33,14.363 -15.61,14.363 -9.11,0 -14.44,-5.48 -16.14,-14.363 z m 51.14,-6.66 c 0,-2.219 -0.14,-4.879 -0.37,-6.508 h -50.84 c 2.07,-10.359 9.32,-14.879 18.43,-14.879 6.21,0 12.95,2.52 18.13,6.879 l 11.32,-12.43 c -8.14,-7.48 -18.5,-10.883 -30.56,-10.883 -21.99,0 -37.23,14.954 -37.23,37.532 0,22.57 14.8,37.961 36.26,37.961 20.65,0 34.79,-15.321 34.86,-37.672" /><path
         id="path250"
         style="fill:#1e2328;fill-opacity:1;fill-rule:nonzero;stroke:none"
         d="m 3042.87,282.398 c 0,-11.328 7.48,-19.757 18.43,-19.757 11.4,0 18.5,8.8 18.5,19.757 0,10.954 -7.1,19.762 -18.5,19.762 -10.95,0 -18.43,-8.441 -18.43,-19.762 z m 56.77,0 c 0,-21.539 -14.95,-37.75 -34.71,-37.75 -9.62,0 -16.43,3.782 -21.1,9.332 v -37.089 h -19.24 v 101.328 h 18.87 v -7.918 c 4.67,5.847 11.55,9.84 21.4,9.84 19.83,0 34.78,-16.2 34.78,-37.743" /><path
         id="path252"
         style="fill:#1e2328;fill-opacity:1;fill-rule:nonzero;stroke:none"
         d="m 3128.09,246.5 h -19.32 v 71.719 h 19.32 z m 2.59,95.18 c 0,-6.95 -5.41,-12.282 -12.36,-12.282 -6.96,0 -12.29,5.332 -12.29,12.282 0,6.961 5.33,12.441 12.29,12.441 6.95,0 12.36,-5.48 12.36,-12.441" /><path
         id="path254"
         style="fill:#1e2328;fill-opacity:1;fill-rule:nonzero;stroke:none"
         d="m 3160.32,292.68 27.02,25.539 h 23.68 l -34.78,-33.75 35,-37.969 h -23.75 l -27.17,29.012 V 246.5 H 3141 v 106.582 h 19.32 V 292.68" /><path
         id="path256"
         style="fill:#1e2328;fill-opacity:1;fill-rule:nonzero;stroke:none"
         d="m 1844.12,266.34 v 32.082 c -3.95,6.148 -12.44,11.418 -21.24,11.418 -14.2,0 -22.7,-11.711 -22.7,-27.391 0,-15.668 8.5,-27.238 22.7,-27.238 8.8,0 17.29,4.969 21.24,11.129 z m 0,-19.192 v 10.551 c -5.27,-7.179 -13.91,-12.308 -23.87,-12.308 -18.46,0 -31.49,14.058 -31.49,37.058 0,22.563 12.89,37.211 31.49,37.211 9.52,0 18.16,-4.691 23.87,-12.449 v 37.641 h 10.99 v -97.704 h -10.99" /><path
         id="path258"
         style="fill:#1e2328;fill-opacity:1;fill-rule:nonzero;stroke:none"
         d="m 1904.04,310.57 c -15.09,0 -22.56,-12.738 -23.15,-23.578 h 46.43 c -0.14,10.547 -7.17,23.578 -23.28,23.578 z m -34.72,-27.968 c 0,20.5 14.65,37.058 34.86,37.058 21.39,0 33.98,-16.699 33.98,-37.941 v -2.789 h -57.27 c 0.88,-13.321 10.26,-24.461 25.49,-24.461 8.05,0 16.26,3.23 21.82,8.941 l 5.28,-7.18 c -7.04,-7.031 -16.55,-10.839 -28.13,-10.839 -20.94,0 -36.03,15.089 -36.03,37.211" /><path
         id="path260"
         style="fill:#1e2328;fill-opacity:1;fill-rule:nonzero;stroke:none"
         d="m 1946.07,256.531 5.71,7.899 c 4.69,-5.418 13.63,-10.098 23.29,-10.098 10.84,0 16.7,5.117 16.7,12.156 0,17.133 -43.79,6.594 -43.79,32.813 0,10.98 9.51,20.359 26.36,20.359 12.01,0 20.51,-4.539 26.22,-10.262 l -5.13,-7.617 c -4.24,5.129 -12.01,8.938 -21.09,8.938 -9.67,0 -15.67,-4.828 -15.67,-11.129 0,-15.531 43.79,-5.27 43.79,-32.809 0,-11.871 -9.52,-21.39 -27.83,-21.39 -11.57,0 -21.38,3.519 -28.56,11.14" /><path
         id="path262"
         style="fill:#1e2328;fill-opacity:1;fill-rule:nonzero;stroke:none"
         d="m 2016.67,247.148 v 70.754 h 10.99 v -70.754 z m -1.9,88.184 c 0,4.098 3.37,7.469 7.32,7.469 4.1,0 7.47,-3.371 7.47,-7.469 0,-4.102 -3.37,-7.32 -7.47,-7.32 -3.95,0 -7.32,3.218 -7.32,7.32" /><path
         id="path264"
         style="fill:#1e2328;fill-opacity:1;fill-rule:nonzero;stroke:none"
         d="m 2097.09,267.512 v 30.91 c -3.81,6.148 -12.31,11.418 -21.1,11.418 -14.21,0 -22.7,-11.281 -22.7,-26.949 0,-15.532 8.49,-26.95 22.7,-26.95 8.79,0 17.29,5.418 21.1,11.571 z m -51.27,-38.524 5.57,8.203 c 5.85,-7.031 12.89,-9.671 22.99,-9.671 11.72,0 22.71,5.71 22.71,21.242 v 10.109 c -5.13,-7.18 -13.77,-12.601 -23.74,-12.601 -18.45,0 -31.49,13.769 -31.49,36.621 0,22.711 12.89,36.769 31.49,36.769 9.53,0 18.02,-4.691 23.74,-12.449 v 10.691 h 10.98 v -68.703 c 0,-23.437 -16.4,-30.758 -33.69,-30.758 -12.01,0 -20.21,2.34 -28.56,10.547" /><path
         id="path266"
         style="fill:#1e2328;fill-opacity:1;fill-rule:nonzero;stroke:none"
         d="m 2174.13,247.148 v 46.293 c 0,12.45 -6.29,16.399 -15.82,16.399 -8.64,0 -16.84,-5.27 -20.94,-10.981 v -51.711 h -10.99 v 70.754 h 10.99 v -10.261 c 4.98,5.859 14.64,12.019 25.19,12.019 14.8,0 22.56,-7.469 22.56,-22.851 v -49.661 h -10.99" /><path
         id="path268"
         style="fill:#1e2328;fill-opacity:1;fill-rule:nonzero;stroke:none"
         d="m 2234.04,310.57 c -15.09,0 -22.56,-12.738 -23.14,-23.578 h 46.43 c -0.15,10.547 -7.18,23.578 -23.29,23.578 z m -34.72,-27.968 c 0,20.5 14.65,37.058 34.87,37.058 21.38,0 33.98,-16.699 33.98,-37.941 v -2.789 h -57.27 c 0.88,-13.321 10.25,-24.461 25.49,-24.461 8.05,0 16.25,3.23 21.82,8.941 l 5.27,-7.18 c -7.03,-7.031 -16.55,-10.839 -28.12,-10.839 -20.95,0 -36.04,15.089 -36.04,37.211" /><path
         id="path270"
         style="fill:#1e2328;fill-opacity:1;fill-rule:nonzero;stroke:none"
         d="m 2333.5,266.34 v 32.082 c -3.96,6.148 -12.45,11.418 -21.24,11.418 -14.21,0 -22.7,-11.711 -22.7,-27.391 0,-15.668 8.49,-27.238 22.7,-27.238 8.79,0 17.28,4.969 21.24,11.129 z m 0,-19.192 v 10.551 c -5.27,-7.179 -13.92,-12.308 -23.88,-12.308 -18.45,0 -31.49,14.058 -31.49,37.058 0,22.563 12.89,37.211 31.49,37.211 9.52,0 18.17,-4.691 23.88,-12.449 v 37.641 h 10.99 v -97.704 h -10.99" /><path
         id="path272"
         style="fill:#1e2328;fill-opacity:1;fill-rule:nonzero;stroke:none"
         d="m 2429,255.211 c 14.36,0 22.85,11.57 22.85,27.238 0,15.68 -8.49,27.391 -22.85,27.391 -8.64,0 -17.28,-5.27 -21.1,-11.418 V 266.34 c 3.82,-6.16 12.46,-11.129 21.1,-11.129 z m -32.08,-8.063 v 97.704 h 10.98 v -37.641 c 5.72,7.758 14.21,12.449 23.88,12.449 18.46,0 31.5,-14.648 31.5,-37.211 0,-23 -13.04,-37.058 -31.5,-37.058 -9.96,0 -18.6,5.129 -23.88,12.308 v -10.551 h -10.98" /><path
         id="path274"
         style="fill:#1e2328;fill-opacity:1;fill-rule:nonzero;stroke:none"
         d="m 2475.29,229.43 c 1.61,-0.739 4.24,-1.18 6,-1.18 4.83,0 8.06,1.609 10.55,7.469 l 4.69,10.703 -29.59,71.48 h 11.86 l 23.58,-58.011 23.44,58.011 h 12.01 l -35.45,-85.113 c -4.24,-10.25 -11.42,-14.207 -20.8,-14.348 -2.34,0 -6,0.438 -8.05,1.028 l 1.76,9.961" /><path
         id="path276"
         style="fill:#fbfdfe;fill-opacity:1;fill-rule:nonzero;stroke:none"
         d="m 2601.04,345.391 c -4.32,-4.442 -8.03,-9.309 -11.08,-14.539 l -4.65,2.418 c -0.67,2.972 -3.5,5.019 -6.59,4.66 -3.31,-0.391 -5.68,-3.391 -5.29,-6.7 0.39,-3.308 3.39,-5.679 6.7,-5.289 l 1.83,0.52 4.52,-2.34 c -2.51,-5.539 -4.33,-11.383 -5.4,-17.441 l 7.47,-1.309 c 2.3,13.059 8.49,25.059 17.92,34.719 l -5.43,5.301" /><path
         id="path278"
         style="fill:#fbfdfe;fill-opacity:1;fill-rule:nonzero;stroke:none"
         d="m 2655.92,368.41 c -1.71,0 -3.41,-0.058 -5.1,-0.168 l -0.73,6.258 c 1.87,1.492 2.95,3.891 2.65,6.441 -0.46,3.93 -4.02,6.739 -7.95,6.278 -3.93,-0.457 -6.74,-4.02 -6.28,-7.949 0.3,-2.54 1.89,-4.61 4.05,-5.641 l 0.73,-6.238 c -7.14,-1.161 -14.03,-3.321 -20.6,-6.461 l 3.27,-6.84 c 9.35,4.469 19.42,6.742 29.96,6.742 4.96,0 9.93,-0.531 14.75,-1.582 l 1.61,7.41 c -5.35,1.16 -10.86,1.75 -16.36,1.75" /><path
         id="path280"
         style="fill:#fbfdfe;fill-opacity:1;fill-rule:nonzero;stroke:none"
         d="m 2721.94,342.93 c 3.31,0.41 5.66,3.422 5.26,6.73 -0.41,3.309 -3.42,5.66 -6.73,5.25 -3.09,-0.379 -5.35,-3.031 -5.29,-6.078 l -4.16,-3.641 c -4.18,4.301 -8.9,8.129 -14.08,11.399 l -4.04,-6.418 c 11.34,-7.141 20.2,-17.262 25.63,-29.25 l 6.91,3.129 c -2.51,5.539 -5.68,10.719 -9.42,15.449 l 4.02,3.512 1.9,-0.082" /><path
         id="path282"
         style="fill:#fbfdfe;fill-opacity:1;fill-rule:nonzero;stroke:none"
         d="m 2650.44,266.32 c -3.85,-0.23 -7.75,-0.34 -11.57,-0.34 -8.8,0 -17.33,0.602 -24.78,1.79 -3.91,0.621 -8.46,1.55 -12.71,2.921 10.47,-18.609 30.7,-31.25 53.89,-31.25 28.55,0 52.62,19.161 59.5,45.028 -6.82,-4.489 -15.06,-8.25 -24.59,-11.219 -11.79,-3.68 -25.54,-6.07 -39.74,-6.93" /><path
         id="path284"
         style="fill:#fbfdfe;fill-opacity:1;fill-rule:nonzero;stroke:none"
         d="m 2681.7,297.18 c -7.5,0 -13.6,6.101 -13.6,13.601 0,7.5 6.1,13.61 13.6,13.61 7.5,0 13.6,-6.11 13.6,-13.61 0,-7.5 -6.1,-13.601 -13.6,-13.601 z m -47.38,-9.078 c -10.19,0 -18.49,8.289 -18.49,18.488 0,10.199 8.3,18.5 18.49,18.5 10.2,0 18.5,-8.301 18.5,-18.5 0,-10.199 -8.3,-18.488 -18.5,-18.488 z m 21.6,65.14 c -33.52,0 -60.8,-26.66 -60.8,-59.433 0,-4.25 0.46,-8.489 1.37,-12.61 6.74,-4.828 27.06,-8.898 53.48,-7.308 28.79,1.73 52.97,9.57 66.72,21.578 -0.05,1.953 -0.21,3.902 -0.45,5.82 -3.8,29.621 -29.73,51.953 -60.32,51.953" /><path
         id="path286"
         style="fill:#fbfdfe;fill-opacity:1;fill-rule:nonzero;stroke:none"
         d="m 2815.95,334.57 c -2.94,1.16 -8.05,3.09 -13.82,2.379 -5.51,-0.687 -8.44,-3.41 -8.44,-10.07 v -8.66 h 22.28 v -17.168 h -22.28 V 246.5 h -19.32 v 54.551 h -13.39 v 17.168 h 13.39 v 8.883 c 0,16.796 8.96,27.828 25.69,27.828 6.42,0 11.57,-1.219 15.9,-3.078 l -0.01,-17.282" /><path
         id="path288"
         style="fill:#fbfdfe;fill-opacity:1;fill-rule:nonzero;stroke:none"
         d="m 2862.98,301.25 c -1.77,0.301 -3.58,0.469 -5.26,0.469 -8.96,0 -15.1,-5.477 -15.1,-16.137 V 246.5 h -19.32 v 71.719 h 18.73 v -7.84 c 4.51,6.73 11.39,9.762 20.2,9.762 4.15,0 8.48,-1.27 10.95,-3.36 l -10.2,-15.531" /><path
         id="path290"
         style="fill:#fbfdfe;fill-opacity:1;fill-rule:nonzero;stroke:none"
         d="m 2888.51,289.129 h 31.75 c -1.78,9.18 -7.33,14.363 -15.62,14.363 -9.1,0 -14.43,-5.48 -16.13,-14.363 z m 51.14,-6.66 c 0,-2.219 -0.15,-4.879 -0.37,-6.508 h -50.85 c 2.08,-10.359 9.33,-14.879 18.43,-14.879 6.22,0 12.96,2.52 18.14,6.879 l 11.32,-12.43 c -8.14,-7.48 -18.5,-10.883 -30.57,-10.883 -21.98,0 -37.22,14.954 -37.22,37.532 0,22.57 14.8,37.961 36.26,37.961 20.65,0 34.79,-15.321 34.86,-37.672" /><path
         id="path292"
         style="fill:#fbfdfe;fill-opacity:1;fill-rule:nonzero;stroke:none"
         d="m 2965.04,289.129 h 31.75 c -1.77,9.18 -7.33,14.363 -15.61,14.363 -9.11,0 -14.44,-5.48 -16.14,-14.363 z m 51.14,-6.66 c 0,-2.219 -0.14,-4.879 -0.37,-6.508 h -50.84 c 2.07,-10.359 9.32,-14.879 18.43,-14.879 6.21,0 12.95,2.52 18.13,6.879 l 11.32,-12.43 c -8.14,-7.48 -18.5,-10.883 -30.56,-10.883 -21.99,0 -37.23,14.954 -37.23,37.532 0,22.57 14.8,37.961 36.26,37.961 20.65,0 34.79,-15.321 34.86,-37.672" /><path
         id="path294"
         style="fill:#fbfdfe;fill-opacity:1;fill-rule:nonzero;stroke:none"
         d="m 3042.87,282.398 c 0,-11.328 7.48,-19.757 18.43,-19.757 11.4,0 18.5,8.8 18.5,19.757 0,10.954 -7.1,19.762 -18.5,19.762 -10.95,0 -18.43,-8.441 -18.43,-19.762 z m 56.77,0 c 0,-21.539 -14.95,-37.75 -34.71,-37.75 -9.62,0 -16.43,3.782 -21.1,9.332 v -37.089 h -19.24 v 101.328 h 18.87 v -7.918 c 4.67,5.847 11.55,9.84 21.4,9.84 19.83,0 34.78,-16.2 34.78,-37.743" /><path
         id="path296"
         style="fill:#fbfdfe;fill-opacity:1;fill-rule:nonzero;stroke:none"
         d="m 3128.09,246.5 h -19.32 v 71.719 h 19.32 z m 2.59,95.18 c 0,-6.95 -5.41,-12.282 -12.36,-12.282 -6.96,0 -12.29,5.332 -12.29,12.282 0,6.961 5.33,12.441 12.29,12.441 6.95,0 12.36,-5.48 12.36,-12.441" /><path
         id="path298"
         style="fill:#fbfdfe;fill-opacity:1;fill-rule:nonzero;stroke:none"
         d="m 3160.32,292.68 27.02,25.539 h 23.68 l -34.78,-33.75 35,-37.969 h -23.75 l -27.17,29.012 V 246.5 H 3141 v 106.582 h 19.32 V 292.68" /><path
         id="path300"
         style="fill:#fbfdfe;fill-opacity:1;fill-rule:nonzero;stroke:none"
         d="m 1844.12,266.34 v 32.082 c -3.95,6.148 -12.44,11.418 -21.24,11.418 -14.2,0 -22.7,-11.711 -22.7,-27.391 0,-15.668 8.5,-27.238 22.7,-27.238 8.8,0 17.29,4.969 21.24,11.129 z m 0,-19.192 v 10.551 c -5.27,-7.179 -13.91,-12.308 -23.87,-12.308 -18.46,0 -31.49,14.058 -31.49,37.058 0,22.563 12.89,37.211 31.49,37.211 9.52,0 18.16,-4.691 23.87,-12.449 v 37.641 h 10.99 v -97.704 h -10.99" /><path
         id="path302"
         style="fill:#fbfdfe;fill-opacity:1;fill-rule:nonzero;stroke:none"
         d="m 1904.04,310.57 c -15.09,0 -22.56,-12.738 -23.15,-23.578 h 46.43 c -0.14,10.547 -7.17,23.578 -23.28,23.578 z m -34.72,-27.968 c 0,20.5 14.65,37.058 34.86,37.058 21.39,0 33.98,-16.699 33.98,-37.941 v -2.789 h -57.27 c 0.88,-13.321 10.26,-24.461 25.49,-24.461 8.05,0 16.26,3.23 21.82,8.941 l 5.28,-7.18 c -7.04,-7.031 -16.55,-10.839 -28.13,-10.839 -20.94,0 -36.03,15.089 -36.03,37.211" /><path
         id="path304"
         style="fill:#fbfdfe;fill-opacity:1;fill-rule:nonzero;stroke:none"
         d="m 1946.07,256.531 5.71,7.899 c 4.69,-5.418 13.63,-10.098 23.29,-10.098 10.84,0 16.7,5.117 16.7,12.156 0,17.133 -43.79,6.594 -43.79,32.813 0,10.98 9.51,20.359 26.36,20.359 12.01,0 20.51,-4.539 26.22,-10.262 l -5.13,-7.617 c -4.24,5.129 -12.01,8.938 -21.09,8.938 -9.67,0 -15.67,-4.828 -15.67,-11.129 0,-15.531 43.79,-5.27 43.79,-32.809 0,-11.871 -9.52,-21.39 -27.83,-21.39 -11.57,0 -21.38,3.519 -28.56,11.14" /><path
         id="path306"
         style="fill:#fbfdfe;fill-opacity:1;fill-rule:nonzero;stroke:none"
         d="m 2016.67,247.148 v 70.754 h 10.99 v -70.754 z m -1.9,88.184 c 0,4.098 3.37,7.469 7.32,7.469 4.1,0 7.47,-3.371 7.47,-7.469 0,-4.102 -3.37,-7.32 -7.47,-7.32 -3.95,0 -7.32,3.218 -7.32,7.32" /><path
         id="path308"
         style="fill:#fbfdfe;fill-opacity:1;fill-rule:nonzero;stroke:none"
         d="m 2097.09,267.512 v 30.91 c -3.81,6.148 -12.31,11.418 -21.1,11.418 -14.21,0 -22.7,-11.281 -22.7,-26.949 0,-15.532 8.49,-26.95 22.7,-26.95 8.79,0 17.29,5.418 21.1,11.571 z m -51.27,-38.524 5.57,8.203 c 5.85,-7.031 12.89,-9.671 22.99,-9.671 11.72,0 22.71,5.71 22.71,21.242 v 10.109 c -5.13,-7.18 -13.77,-12.601 -23.74,-12.601 -18.45,0 -31.49,13.769 -31.49,36.621 0,22.711 12.89,36.769 31.49,36.769 9.53,0 18.02,-4.691 23.74,-12.449 v 10.691 h 10.98 v -68.703 c 0,-23.437 -16.4,-30.758 -33.69,-30.758 -12.01,0 -20.21,2.34 -28.56,10.547" /><path
         id="path310"
         style="fill:#fbfdfe;fill-opacity:1;fill-rule:nonzero;stroke:none"
         d="m 2174.13,247.148 v 46.293 c 0,12.45 -6.29,16.399 -15.82,16.399 -8.64,0 -16.84,-5.27 -20.94,-10.981 v -51.711 h -10.99 v 70.754 h 10.99 v -10.261 c 4.98,5.859 14.64,12.019 25.19,12.019 14.8,0 22.56,-7.469 22.56,-22.851 v -49.661 h -10.99" /><path
         id="path312"
         style="fill:#fbfdfe;fill-opacity:1;fill-rule:nonzero;stroke:none"
         d="m 2234.04,310.57 c -15.09,0 -22.56,-12.738 -23.14,-23.578 h 46.43 c -0.15,10.547 -7.18,23.578 -23.29,23.578 z m -34.72,-27.968 c 0,20.5 14.65,37.058 34.87,37.058 21.38,0 33.98,-16.699 33.98,-37.941 v -2.789 h -57.27 c 0.88,-13.321 10.25,-24.461 25.49,-24.461 8.05,0 16.25,3.23 21.82,8.941 l 5.27,-7.18 c -7.03,-7.031 -16.55,-10.839 -28.12,-10.839 -20.95,0 -36.04,15.089 -36.04,37.211" /><path
         id="path314"
         style="fill:#fbfdfe;fill-opacity:1;fill-rule:nonzero;stroke:none"
         d="m 2333.5,266.34 v 32.082 c -3.96,6.148 -12.45,11.418 -21.24,11.418 -14.21,0 -22.7,-11.711 -22.7,-27.391 0,-15.668 8.49,-27.238 22.7,-27.238 8.79,0 17.28,4.969 21.24,11.129 z m 0,-19.192 v 10.551 c -5.27,-7.179 -13.92,-12.308 -23.88,-12.308 -18.45,0 -31.49,14.058 -31.49,37.058 0,22.563 12.89,37.211 31.49,37.211 9.52,0 18.17,-4.691 23.88,-12.449 v 37.641 h 10.99 v -97.704 h -10.99" /><path
         id="path316"
         style="fill:#fbfdfe;fill-opacity:1;fill-rule:nonzero;stroke:none"
         d="m 2429,255.211 c 14.36,0 22.85,11.57 22.85,27.238 0,15.68 -8.49,27.391 -22.85,27.391 -8.64,0 -17.28,-5.27 -21.1,-11.418 V 266.34 c 3.82,-6.16 12.46,-11.129 21.1,-11.129 z m -32.08,-8.063 v 97.704 h 10.98 v -37.641 c 5.72,7.758 14.21,12.449 23.88,12.449 18.46,0 31.5,-14.648 31.5,-37.211 0,-23 -13.04,-37.058 -31.5,-37.058 -9.96,0 -18.6,5.129 -23.88,12.308 v -10.551 h -10.98" /><path
         id="path318"
         style="fill:#fbfdfe;fill-opacity:1;fill-rule:nonzero;stroke:none"
         d="m 2475.29,229.43 c 1.61,-0.739 4.24,-1.18 6,-1.18 4.83,0 8.06,1.609 10.55,7.469 l 4.69,10.703 -29.59,71.48 h 11.86 l 23.58,-58.011 23.44,58.011 h 12.01 l -35.45,-85.113 c -4.24,-10.25 -11.42,-14.207 -20.8,-14.348 -2.34,0 -6,0.438 -8.05,1.028 l 1.76,9.961" /></g></g></svg>