<?xml version="1.0" encoding="UTF-8" standalone="no"?>
<svg
   xmlns:dc="http://purl.org/dc/elements/1.1/"
   xmlns:cc="http://creativecommons.org/ns#"
   xmlns:rdf="http://www.w3.org/1999/02/22-rdf-syntax-ns#"
   xmlns:svg="http://www.w3.org/2000/svg"
   xmlns="http://www.w3.org/2000/svg"
   viewBox="0 0 4000 2666.6667"
   height="2666.6667"
   width="4000"
   xml:space="preserve"
   id="svg2"
   version="1.1"><metadata
     id="metadata8"><rdf:RDF><cc:Work
         rdf:about=""><dc:format>image/svg+xml</dc:format><dc:type
           rdf:resource="http://purl.org/dc/dcmitype/StillImage" /></cc:Work></rdf:RDF></metadata><defs
     id="defs6" /><g
     transform="matrix(1.3333333,0,0,-1.3333333,0,2666.6667)"
     id="g10"><g
       transform="scale(0.1)"
       id="g12"><g
         transform="scale(1.84049)"
         id="g14"><path
           id="path16"
           style="fill:#000000;fill-opacity:0;fill-rule:nonzero;stroke:none"
           d="M 16300,0 H 0 V 10866.7 H 16300 V 0" /></g><g
         transform="scale(1.60185)"
         id="g18"><path
           id="path20"
           style="fill:#b75742;fill-opacity:1;fill-rule:nonzero;stroke:none"
           d="m 15789.8,6355.2 c 0,0 129.5,46.92 213.2,-84.24 83.7,-131.19 38.4,-118.71 79.1,-184.32 40.8,-65.61 60.3,-252.02 74.4,-352.78 143.5,-1027.93 -1573.1,-1111.21 -902.8,198.96 62.9,122.92 116.1,196.77 172.6,327.96 56.6,131.16 295.7,126.08 363.5,94.42" /></g><g
         transform="scale(1.51563)"
         id="g22"><path
           id="path24"
           style="fill:#355389;fill-opacity:1;fill-rule:nonzero;stroke:none"
           d="m 16300,5701.87 -183,63.93 c 0,0 -72.6,-92.83 -94.4,-325.01 -21.7,-232.18 0,-368.69 0,-368.69 h 207 l 70.4,629.77" /></g><g
         transform="scale(1.59784)"
         id="g26"><path
           id="path28"
           style="fill:#466eb6;fill-opacity:1;fill-rule:nonzero;stroke:none"
           d="m 15809,5526.71 c -58.8,-6.07 -496.8,35.55 -521.2,-57.58 -131.2,-500.67 49.2,-1191.86 95.3,-1237.98 46.1,-46.13 798.8,104.08 798.8,104.08 0,0 118.1,1242.11 -372.9,1191.48" /></g><g
         transform="scale(1.65009)"
         id="g30"><path
           id="path32"
           style="fill:#f7a491;fill-opacity:1;fill-rule:nonzero;stroke:none"
           d="m 15887.3,5848.7 c 0,0 -46.8,22.31 -89.4,101.21 -27.3,50.61 -108.5,115.45 -74.8,125.95 33.8,10.48 85.7,-75.1 95.4,-50.56 9.6,24.48 -87.1,209.73 -56.4,219.24 30.6,9.51 110.8,-170.69 119.5,-148.76 8.7,21.93 -81.9,179.37 -38.6,192.81 43.3,13.44 90.1,-193.8 113.3,-186.59 23.3,7.21 -10.6,165.32 24.3,176.14 34.8,10.82 29.9,-195.53 42.4,-189.58 6.8,3.21 37.7,103.16 56.7,95.66 21.4,-8.47 -36.4,-213.64 -10.7,-258.85 25.6,-45.21 231,-607.36 160.8,-677.6 -76.5,-76.48 -563.4,-251.99 -665.3,-221.81 -101.8,30.18 -160.2,130.9 -135.7,192.78 24.5,61.94 505.8,201.02 513.5,220.41 7.7,19.45 -55,409.55 -55,409.55" /></g><g
         transform="scale(1.62352)"
         id="g34"><path
           id="path36"
           style="fill:#f48c7f;fill-opacity:1;fill-rule:nonzero;stroke:none"
           d="m 16187,6124.9 c 14.9,0.61 29.7,-2.71 43.8,-7.95 2.1,-1.48 49,-15.15 69.2,-67.02 -22.3,26.55 -47.1,55.87 -113,74.97" /></g><path
         id="path38"
         style="fill:#f7a491;fill-opacity:1;fill-rule:nonzero;stroke:none"
         d="m 15357.6,3776.2 c -13.3,95.5 16.6,259.7 91.4,516.7 -148.1,-0.3 -272.5,65.2 -423.8,62.9 -41.4,-241.6 -105.4,-638.4 -105.4,-638.4 l -6.8,-313.7 1053.5,-7.9 c 0,0 -8.8,-4.5 -319.4,191.7 -22.9,14.5 -276.6,96.4 -289.5,188.7" /><path
         id="path40"
         style="fill:#3c8f7c;fill-opacity:1;fill-rule:nonzero;stroke:none"
         d="m 14907.9,3323.1 h 1087.6 c 40.2,3.6 50,36.4 36,56.6 -28.7,41.7 -240.8,141.7 -383.4,208 -250.1,-26.3 -689.8,76.7 -729.2,134.6 -68.6,-191.9 -33.3,-394.3 -11,-399.2" /><path
         id="path42"
         style="fill:#f7a491;fill-opacity:1;fill-rule:nonzero;stroke:none"
         d="m 14045.3,3776.2 c -13.4,95.5 -36,215.1 -2.8,533.5 -148.1,-0.4 -288.9,27.4 -440.2,25.1 0,-248.6 5.2,-617.4 5.2,-617.4 l -6.9,-313.7 1053.5,-7.9 c 0,0 -8.7,-4.5 -319.3,191.7 -23,14.5 -276.7,96.4 -289.5,188.7" /><path
         id="path44"
         style="fill:#3c8f7c;fill-opacity:1;fill-rule:nonzero;stroke:none"
         d="m 13595.6,3323.1 h 1087.5 c 40.2,3.6 50,36.4 36.1,56.6 -28.7,41.7 -240.8,141.7 -383.4,208 -250.2,-26.3 -689.8,76.7 -729.3,134.6 -68.6,-191.9 -33.3,-394.3 -10.9,-399.2" /><g
         transform="scale(1.05728)"
         id="g46"><path
           id="path48"
           style="fill:#f7a491;fill-opacity:1;fill-rule:nonzero;stroke:none"
           d="m 14008.5,12176.1 374.8,395.5 c 0,0 401.2,-220.7 868.9,-431.5 128.5,223.8 338.3,959.9 349.7,995 11.2,35.2 -245.8,477.4 -188.3,488.5 57.5,11 132.2,-236.2 192.9,-211.1 60.8,25 217.2,598.6 253.8,567.3 68.4,-58.6 -82.3,-356.8 -46.2,-378.5 36.1,-21.7 127.6,330.5 197.3,315.5 69.6,-15 -117.6,-320.7 -97.1,-350 20.5,-29.4 216.4,257.3 256.8,190.9 22,-36 -180.6,-249.7 -139,-273.6 41.8,-23.9 224.3,110.7 246.1,67.1 21.8,-43.6 -170.4,-89 -223.7,-199.3 -53.4,-110.3 -150.4,-153.2 -182.6,-361.8 -32,-208.3 -120.2,-1323.1 -347.4,-1412.6 -198.4,-78.1 -1516,598.6 -1516,598.6" /></g><path
         id="path50"
         style="fill:#355389;fill-opacity:1;fill-rule:nonzero;stroke:none"
         d="m 15066.9,10618.6 -321.4,-179.3 -653.2,-998.7 1168.2,-2749.6 c 0,0 -131.6,-413.5 -174.4,-620.1 -44.9,-216.1 -154.9,-2071.3 -154.9,-2071.3 l 498.4,-8.3 c 0,0 473.4,1974.9 553.5,2615.9 97.4,778.4 -495.4,2632.3 -495.4,2632.3 -110.5,378.2 -348.8,1156.3 -348.8,1156.3 0,0 -58.3,189.6 -72,222.8" /><path
         id="path52"
         style="fill:#466eb6;fill-opacity:1;fill-rule:nonzero;stroke:none"
         d="m 13948.4,10993.7 c 0,0 33.2,-235 -99.7,-502.9 -81,-163.4 -221,-291.5 -321.2,-491.6 -189.6,-378.8 -292.6,-916.7 -221.5,-1262.5 0,0 392.1,-1497.3 376.6,-2044.5 -5.8,-201.8 -75,-565.4 -119.3,-811.2 -39.2,-217.3 -25.4,-1829.2 -25.4,-1829.2 l 529.5,-10.3 426.2,2643.9 180.2,2350.2 393,1582.9 -1118.4,375.2" /><path
         id="path54"
         style="fill:#13375b;fill-opacity:1;fill-rule:nonzero;stroke:none"
         d="m 15185.6,14486.6 c -51.4,242.7 -104.4,486.3 -345.6,661.1 -195.2,141.4 -404.9,181.9 -627.2,101.2 -630,-228.5 -291.2,-728.4 -1072.9,-1261.2 -242.9,-165.6 -335.1,-223.3 -509.4,-443.9 -244,-308.9 -377.4,-723.2 -254.8,-1064.4 253.7,-705.5 1039.7,-909.3 1450.8,-759.7 765.3,278.4 1402.9,1249 1445.3,1513.8 45.3,283.5 -53.1,1096.8 -86.2,1253.1" /><path
         id="path56"
         style="fill:#50bfa5;fill-opacity:1;fill-rule:nonzero;stroke:none"
         d="m 15244,12610.9 c 177.3,-82 498.5,-205.1 498.5,-205.1 l 182.7,577.9 c -1032.8,587.5 -951.8,492.7 -1726.9,481.2 -619.3,-8.8 -878.8,109.4 -1412.1,-1330.1 0,0 406,-182.4 551.3,-241 62.5,178 175.5,532.9 241.4,330.6 99.5,-305.7 172.4,-614.3 221.3,-932 31,-188.3 98.6,-429.4 63,-621.2 0,0 421.8,-86.9 743.9,-101 0.9,0 1.9,-0.1 2.8,0 155.6,4 315.1,17.7 457,48.3 0,0 63.1,1335.4 96.9,1391.2 37.4,61.7 195.2,261 60.9,559.2 -23.7,52.7 -17.3,58.9 19.3,42" /><path
         id="path58"
         style="fill:#f7a491;fill-opacity:1;fill-rule:nonzero;stroke:none"
         d="m 14295.3,14059.3 c 0,0 -49.3,-398.2 -78.4,-536.5 -30.4,-144.7 -76.2,-600.3 223.8,-674.3 300,-73.9 207.3,495.8 212.3,642.9 4.9,147.1 90,660 90,660 l -447.7,-92.1" /><path
         id="path60"
         style="fill:#f47458;fill-opacity:1;fill-rule:nonzero;stroke:none"
         d="m 14279,13932.2 c 3.1,-1.8 5.9,-3.8 9,-5.5 165.8,-95.1 310.1,-80.1 418.5,-6.1 19.3,127.3 36.5,230.8 36.5,230.8 l -447.7,-92.1 c 0,0 -6.6,-53 -16.3,-127.1" /><path
         id="path62"
         style="fill:#f7a491;fill-opacity:1;fill-rule:nonzero;stroke:none"
         d="m 14385.5,15096.4 c 0,0 -175.8,-49.4 -277.2,-224 -101.3,-174.5 -151.9,-675.9 221.3,-889.9 373.1,-213.9 638,128.9 626.7,449.5 -11.3,320.7 -100.7,744.9 -570.8,664.4" /><path
         id="path64"
         style="fill:#f7a491;fill-opacity:1;fill-rule:nonzero;stroke:none"
         d="m 15038.7,14569.6 c 4.2,-83.3 -31.5,-152.8 -79.6,-155.3 -48.2,-2.4 -90.5,63.2 -94.7,146.5 -4.1,83.4 31.5,152.9 79.7,155.4 48.1,2.4 90.5,-63.2 94.6,-146.6" /><path
         id="path66"
         style="fill:#13375b;fill-opacity:1;fill-rule:nonzero;stroke:none"
         d="m 14438.3,15109.6 c 0,0 -201.1,-524.4 -398,-580.3 -196.9,-55.9 -181.1,-313.8 -181.1,-313.8 0,0 -25.2,596.2 154.6,742.4 179.8,146.2 424.5,151.7 424.5,151.7" /><path
         id="path68"
         style="fill:#f7a491;fill-opacity:1;fill-rule:nonzero;stroke:none"
         d="m 14124.7,14426.7 c 30.4,-81.9 10.5,-165.2 -44.4,-185.9 -54.9,-20.7 -124.1,29 -154.5,111 -30.3,81.9 -10.4,165.2 44.5,185.9 54.9,20.7 124.1,-29 154.4,-111" /><path
         id="path70"
         style="fill:#f7a491;fill-opacity:1;fill-rule:nonzero;stroke:none"
         d="m 14468.7,10293 c 7.3,-1 40.2,3.3 67.1,2.6 37.2,-0.6 69.7,-6.3 69.7,-6.3 0,0 14.7,12.6 42.6,25.6 11.6,5.3 30.5,7.3 43.5,13.3 13.3,6.3 24.6,17.6 37.2,23.2 32.9,14.3 63.1,17.7 73.1,0.4 8.3,-14.3 -174.8,-126.3 -174.8,-126.3 -169.4,-1 -346.8,-87.4 -739.5,168.8 -224.3,98 -1313.4,635.9 -1335.3,753.2 -12.3,65.8 154.8,575.1 291.4,961.8 105.3,-47.1 329.2,-146.8 454.5,-199.3 -115,-243.5 -250.5,-566.5 -236.3,-606 3.7,-10.3 17.3,-28.9 753.6,-511 18.6,-12 37.5,-24.6 56.8,-37.2 51.8,-33.9 107.3,-70.1 166.1,-108.3 l 210,21.9 c 0,0 332.6,-22.9 342.5,-60.8 4.3,-17.3 -23.2,-25.9 -57.1,-30.9 h -1 c -5,-0.7 -10,-1.3 -15,-2 -0.3,0 -0.6,0 -0.6,0 -36.6,-4.3 -75.1,-5 -84.4,-8.3 -10.7,-3.6 -31.9,-12 -50.2,-24.6 207.3,-84.7 191.4,-54.5 260.2,-50.2 17.2,1.4 35.5,-3.6 51.8,-2.3 27.9,2.3 50.2,19 71.7,20.3 31.6,1.6 57.2,-13 62.9,-19 7.3,-7.3 -6.4,-17.9 -32.9,-29.9 -160.2,-69.4 -292.8,-42.8 -335.3,-53.1 -28.6,-7 23.6,-17.6 105,-9 20.3,2 46.9,-5.3 73.8,1 17.9,4 34.2,15.6 51.8,20 16.3,3.9 32.9,3.6 46.5,6.3 18,3.3 42.9,16.9 57.2,18.6 53.1,5.9 79,-3.4 85,-8.3 12.3,-11 -229.2,-103.7 -229.2,-103.7 0,0 -166.5,-23.9 -203.7,-23.9 0,0 -22.3,-10 21.3,-16.6" /><g
         transform="scale(1.71902)"
         id="g72"><path
           id="path74"
           style="fill:#184655;fill-opacity:1;fill-rule:nonzero;stroke:none"
           d="M 16257.2,1933.13 H 1194.6 c -23.65,0 -42.82,-18.56 -42.82,-41.36 v 0 c 0,-22.86 19.17,-41.36 42.82,-41.36 h 15062.6 c 23.6,0 42.8,18.5 42.8,41.36 v 0 c 0,22.8 -19.2,41.36 -42.8,41.36" /></g><path
         id="path76"
         style="fill:#466eb6;fill-opacity:1;fill-rule:nonzero;stroke:none"
         d="m 3483.62,8581.8 c 0,0 -111.34,-1373.4 -111.34,-1492.7 0,-119.3 473.91,-153 473.91,-153 l 144.89,1409.3 -507.46,236.4" /><path
         id="path78"
         style="fill:#86b1f2;fill-opacity:1;fill-rule:nonzero;stroke:none"
         d="m 4190.46,8916.1 c 0,0 -307.48,164.7 -560.97,13.8 C 3376.01,8779 3306.98,7892.6 3306.98,7892.6 l 812.01,-97.3 71.47,1120.8" /><path
         id="path80"
         style="fill:#f47458;fill-opacity:1;fill-rule:nonzero;stroke:none"
         d="m 6068.15,4394.8 c 0,0 -155.38,-633.7 -271.19,-733.2 -115.81,-99.5 -493.46,-289.8 -394.64,-310.3 98.82,-20.4 830.15,-37.4 810.1,84.5 -20.05,122 -41.09,199.8 -41.09,199.8 l 193.45,452.6 -296.63,306.6" /><path
         id="path82"
         style="fill:#13375b;fill-opacity:1;fill-rule:nonzero;stroke:none"
         d="m 5353.15,3325.4 c 178.36,-17.8 699.13,-36.5 850.87,-17.1 0,0 28.45,5.6 8.4,127.5 -4.9,29.9 -9.86,57 -14.56,81.1 -137.61,-36.2 -437.31,40.8 -556.04,56.6 -128.97,-61.8 -274.34,-154 -321.23,-161.7 -67.92,-11.2 -67.86,-76.4 32.56,-86.4" /><path
         id="path84"
         style="fill:#f47458;fill-opacity:1;fill-rule:nonzero;stroke:none"
         d="m 7773.54,3863.6 c 0,0 16.31,-160.3 16.31,-231 0,-70.6 -65.81,-269.9 -35.32,-300.4 30.48,-30.5 901.58,-26.7 901.58,2 0,28.7 -153.94,115.6 -363.14,175.4 -209.21,59.8 -280.33,291.5 -225.99,424.6 l -293.44,-70.6" /><path
         id="path86"
         style="fill:#13375b;fill-opacity:1;fill-rule:nonzero;stroke:none"
         d="m 8670.15,3332.2 c 0,26.8 -142.85,108.8 -327.85,165.4 -197.15,-66.6 -470.93,-11.7 -573.57,7.9 -31.42,-82.1 -41.45,-160 -25.29,-176.1 30.49,-30.5 926.71,-25.9 926.71,2.8" /><path
         id="path88"
         style="fill:#86b1f2;fill-opacity:1;fill-rule:nonzero;stroke:none"
         d="m 6828.04,6542.5 -156.23,-138.6 c 0,0 -175.87,-476.2 -186.11,-507.6 -14.24,-43.7 -583.94,-1879.5 -583.94,-1879.5 l 396.89,-142.9 c 0,0 393.53,766.7 458.74,1033 65.21,266.2 717.29,1380.2 717.29,1380.2 l -646.64,255.4" /><path
         id="path90"
         style="fill:#86b1f2;fill-opacity:1;fill-rule:nonzero;stroke:none"
         d="m 7518.14,6259.9 190.2,-2433.2 h 440.15 c 0,0 157.58,1821 103.24,2460.4 l -733.59,-27.2" /><path
         id="path92"
         style="fill:#f7a491;fill-opacity:1;fill-rule:nonzero;stroke:none"
         d="m 5159.81,7955.3 c 0,0 133.75,-653.9 251.15,-771.3 66.82,-66.8 248.93,-337.2 389.04,-337.2 111.51,0 177.92,-8.2 196.65,-8.2 43.47,0 -5.44,-266.2 -46.19,-307 0,0 -13.59,-40.7 -95.1,-40.7 -81.51,0 -513.51,296.1 -643.92,426.5 -130.42,130.4 -372.24,842.3 -372.24,842.3 l 320.61,195.6" /><path
         id="path94"
         style="fill:#f47458;fill-opacity:1;fill-rule:nonzero;stroke:none"
         d="m 7306.22,8775.8 c 0,0 -168.45,-195.6 -391.24,-527.1 -222.8,-331.4 -792.19,-1251.7 -853.13,-1312.6 -14.75,-14.8 -60.94,-44.5 -60.94,-44.5 0,0 -79.95,17.2 -122.97,1.4 -42.04,-15.5 -98.66,-96.9 -78.73,-116.9 19.92,-19.9 96.78,46.7 120.26,46 23.5,-0.8 25.55,-0.7 25.55,-13.4 0,-12.6 -95.1,-65.2 -122.27,-72.4 -27.16,-7.3 -98.77,-117.3 -85.13,-154 13.64,-36.6 12.68,-48.9 47.1,-48.9 34.41,0 39.85,-27.2 68.82,-27.2 28.99,0 36.24,36.3 68.84,21.8 32.61,-14.5 41.66,-10.9 143.09,50.7 101.44,61.6 290.72,290.7 385.81,385.8 95.09,95.1 963.63,1041.5 963.63,1041.5 l -108.69,769.8" /><path
         id="path96"
         style="fill:#184655;fill-opacity:1;fill-rule:nonzero;stroke:none"
         d="m 7674.83,10233 c 0,0 -207.4,75.2 -341.44,-134.9 -134.03,-210.1 -61.58,-190.2 -126.79,-295.2 -65.21,-105.1 -235.47,-83.4 -235.47,-246.4 0,-163 76.08,-188.4 76.08,-188.4 0,0 -68.83,-126.8 7.24,-257.2 76.07,-130.4 265.78,-242.7 424.51,-224.6 0,0 238.43,-130.7 477.52,-69 239.11,61.8 155.78,61.8 253.59,61.8 97.82,0 362.26,134 318.79,329.6 0,0 161.15,191.5 4.79,347.8 -156.35,156.4 -185.92,315.2 -276.48,525.3 -90.57,210.1 -473.65,202 -582.34,151.2" /><path
         id="path98"
         style="fill:#50bfa5;fill-opacity:1;fill-rule:nonzero;stroke:none"
         d="m 4725.1,8849.9 c 30.79,-10.7 156.73,-100.4 230.08,-241.7 73.36,-141.2 267.12,-731.7 267.12,-731.7 L 4903.41,7759.7 4725.1,8849.9" /><path
         id="path100"
         style="fill:#f7a491;fill-opacity:1;fill-rule:nonzero;stroke:none"
         d="m 3120.27,3981.3 c 0,0 -52.53,-186.6 -94.19,-228.3 -41.66,-41.6 -179.77,-203.3 -145.81,-283.4 33.96,-80.2 875.55,-195 907.47,-163 31.92,31.9 -145.36,167.1 -245.88,249.9 -100.53,82.9 -172.53,184.8 -130.42,308.4 42.11,123.6 42.11,111.4 42.11,123.6 0,12.3 -333.28,-7.2 -333.28,-7.2" /><path
         id="path102"
         style="fill:#355389;fill-opacity:1;fill-rule:nonzero;stroke:none"
         d="m 3787.74,3306.6 c 38.09,28.5 -80.15,156.2 -251.51,254.6 -71.73,0.1 -167.39,5 -248.41,25.2 -126.85,31.7 -224.1,141.6 -252.95,177.3 -2.62,-3.7 -206.63,-200.2 -166.82,-294.1 33.95,-80.2 843.62,-220.1 919.69,-163" /><path
         id="path104"
         style="fill:#f7a491;fill-opacity:1;fill-rule:nonzero;stroke:none"
         d="m 4516.66,3890.7 c 0,0 15.54,-191.6 -16.02,-241.4 -31.57,-49.7 -142.02,-246.8 -80.46,-308.4 55.5,-55.5 826.42,-19.8 850.61,18.3 24.19,38.1 -107.74,151.9 -223.92,210.8 -116.19,59 -208.69,142.7 -194.55,272.6 14.13,129.8 16.79,117.9 14.13,129.8 -2.67,11.9 -349.79,-81.7 -349.79,-81.7" /><path
         id="path106"
         style="fill:#355389;fill-opacity:1;fill-rule:nonzero;stroke:none"
         d="m 5366.54,3328.5 c 40.2,25.5 -137.49,186.2 -326.18,244.9 -70.03,-15.5 -164.44,-31.7 -247.94,-29.6 -130.71,3.3 -249.58,89.3 -285.52,117.8 -1.76,-4.1 -177.37,-258.5 -98.66,-323.4 61.46,-50.7 897.23,-48.5 958.3,-9.7" /><path
         id="path108"
         style="fill:#f47458;fill-opacity:1;fill-rule:nonzero;stroke:none"
         d="M 4572.94,6604.1 4075.2,5161.9 3504.27,3826.7 3026.08,3946.9 c 0,0 172.58,925.5 334.69,1216.2 122.67,220 208.32,1482.4 208.32,1482.4 l 1003.85,-41.4" /><path
         id="path110"
         style="fill:#b75742;fill-opacity:1;fill-rule:nonzero;stroke:none"
         d="m 4333.93,6361.4 172.45,-2534.7 h 407.55 c 0,0 178,2655.6 112.79,2908.2 -65.2,252.7 -744.17,195.6 -744.17,195.6 l 51.38,-569.1" /><path
         id="path112"
         style="fill:#96d9c9;fill-opacity:1;fill-rule:nonzero;stroke:none"
         d="m 4725.1,8849.9 c 0,0 -525.23,157.4 -606.11,147.2 -88.54,-11.1 -303.72,-125.1 -303.72,-125.1 0,0 13.22,-911.9 -24.81,-1169.7 -38.04,-257.8 -304.31,-1083.7 -304.31,-1083.7 0,0 374.95,-217.4 1005.29,-146.8 630.34,70.7 586.87,222.8 586.87,222.8 0,0 -59.78,912.9 -119.56,1315.1 -59.77,402.1 -233.65,840.2 -233.65,840.2" /><path
         id="path114"
         style="fill:#f7a491;fill-opacity:1;fill-rule:nonzero;stroke:none"
         d="m 8289.77,8710.6 c 0,0 -279.85,73.4 -597.76,91.1 -164.59,9.1 -385.79,-25.9 -385.79,-25.9 0,0 -201.05,-451 -260.83,-820.5 -59.76,-369.5 -385.81,-1554.1 -385.81,-1554.1 0,0 662.94,-510.8 1630.19,-173.9 v 2483.3" /><path
         id="path116"
         style="fill:#f47458;fill-opacity:1;fill-rule:nonzero;stroke:none"
         d="m 7536.26,9114.6 c 0,0 8.7,-288.6 -18.39,-315.6 -27.09,-27.1 -64.93,-72.1 -25.08,-140.9 39.85,-68.8 212.83,-24.9 293.44,14.5 77.36,37.8 127.29,108.2 127.29,108.2 l -40.35,456.9 -336.91,-123.1" /><path
         id="path118"
         style="fill:#b75742;fill-opacity:1;fill-rule:nonzero;stroke:none"
         d="m 7651.28,8995 c 55.55,19.5 152.62,57 227.54,178.7 l -5.65,64 -336.91,-123.1 c 0,0 2.12,-70.4 1.01,-144.9 47.2,1.9 87.51,16 114.01,25.3" /><path
         id="path120"
         style="fill:#f7cc7f;fill-opacity:1;fill-rule:nonzero;stroke:none"
         d="m 2985.66,10129.1 c 0,0 -27.69,-128.3 106.14,-173.4 133.83,-45.1 216.89,425.7 293.02,518.8 76.14,93 306.88,118.4 426.86,-67.4 65.96,-102.1 86.59,-146.6 91.79,-165.9 4.27,-15.8 -1.81,-14.8 -1.81,-14.8 l -36.18,-67.7 c 0,0 -116.1,70.5 -159.94,-58.2 -43.84,-128.7 85.37,-339.3 -25.38,-514.1 -110.76,-174.8 -313.79,-51.2 -313.79,-51.2 -168.44,-113.2 -362.25,59.6 -424.54,223.1 -62.3,163.6 43.83,370.8 43.83,370.8" /><path
         id="path122"
         style="fill:#f7a491;fill-opacity:1;fill-rule:nonzero;stroke:none"
         d="m 4306.53,9477.4 -18.28,-189.3 -169.26,-291 c 0,0 333.72,-404 436.76,-307.5 23.01,21.6 81.09,449.2 81.09,449.2 l -330.31,338.6" /><path
         id="path124"
         style="fill:#f48c7f;fill-opacity:1;fill-rule:nonzero;stroke:none"
         d="m 4288.25,9288.1 -35.38,-64.6 c 104.07,-93.4 237.53,-177.4 363.7,-225.7 11.78,78.4 20.27,141 20.27,141 l -330.31,338.6 -18.28,-189.3" /><path
         id="path126"
         style="fill:#f7a491;fill-opacity:1;fill-rule:nonzero;stroke:none"
         d="m 4650.2,10098.9 c 0,0 88.23,-80 120.65,-125.2 192.95,-268.9 36.66,-799 -64.07,-843.1 -152.53,-66.8 -351.04,23 -574.76,174.7 -223.71,151.7 -294.41,397.4 -89.57,611.1 204.83,213.6 607.75,182.5 607.75,182.5" /><path
         id="path128"
         style="fill:#f7cc7f;fill-opacity:1;fill-rule:nonzero;stroke:none"
         d="m 3907.91,10146.3 60.96,58.3 c 238.96,0 429.49,144.1 697.7,-0.8 177.02,-95.6 104.28,-230.1 104.28,-230.1 -655.51,0 -419.04,-516.6 -499.37,-722.2 -80.31,-205.6 -581.55,239 -363.57,894.8" /><path
         id="path130"
         style="fill:#f7a491;fill-opacity:1;fill-rule:nonzero;stroke:none"
         d="m 4366.46,9564.5 c 0,0 -9.26,169.5 -113.22,135.9 -103.98,-33.6 -22.96,-289.1 63.35,-280.1 86.3,9 49.87,144.2 49.87,144.2" /><path
         id="path132"
         style="fill:#f47458;fill-opacity:1;fill-rule:nonzero;stroke:none"
         d="m 7932.51,9564 c 0,0 8.2,169.6 112.36,136.7 104.19,-33 24.78,-289 -61.58,-280.5 -86.36,8.4 -50.78,143.8 -50.78,143.8" /><path
         id="path134"
         style="fill:#50bfa5;fill-opacity:1;fill-rule:nonzero;stroke:none"
         d="m 3890.76,10274 c 0,0 98.75,-61.2 138.57,-56.1 39.82,5.1 -60.96,-124 -114.39,-137.4 -53.43,-13.4 -34.61,38 -45.9,55.6 -11.29,17.7 -52.86,3.9 -62.46,17 -21.86,29.6 37.52,115.3 84.18,120.9" /><path
         id="path136"
         style="fill:#f7a491;fill-opacity:1;fill-rule:nonzero;stroke:none"
         d="m 5732.75,6542.5 c 0,0 91.37,141.3 121.25,148.1 29.89,6.8 -6.79,-96.5 -6.79,-115.5 0,-19 54.34,145.3 84.23,145.3 29.88,0 33.96,-21.7 21.73,-63.8 -12.23,-42.1 -40.75,-96.5 -27.17,-96.5 13.59,0 52.31,182.8 74.72,160.3 22.41,-22.4 13.81,-171.8 -28.53,-214.2 -42.34,-42.3 -166.9,-15.8 -239.44,36.3" /><path
         id="path138"
         style="fill:#f7cc7f;fill-opacity:1;fill-rule:nonzero;stroke:none"
         d="m 7102.73,7948.5 c 15.3,16.2 59.76,79.6 135.49,54.5 65.56,-21.8 91.4,-89.4 109.98,-119.9 -5.32,30.8 -17.75,83.8 -3.22,143.9 38.64,159.9 234.35,145.5 230.84,-2.8 -1.38,-58.2 -22.34,-93.8 -51.83,-156.2 12.03,13.2 48.05,56.8 97.58,82.3 144.43,74.4 222.05,-107 119.85,-203.2 -52.84,-49.8 -120.04,-51.1 -161.07,-55.9 35.59,-10 56.89,-13 91.74,-35.1 180.5,-114.4 -70.64,-423.3 -206.34,-125.9 -0.17,0.3 -0.89,0.3 -1.33,0.5 6.21,-42.1 18.17,-93.6 0.83,-153.2 -46.97,-161.4 -261.64,-133 -224.41,49.7 11.65,57.1 49.59,117.6 51.89,122.3 -25.85,-27.6 -64.02,-73.5 -119.22,-95 -142.15,-55.6 -209.92,145.1 -78.97,229.7 58.61,37.9 116.79,32.4 137.35,37.9 -48.58,11.7 -94.32,25.3 -127.5,66 -44.9,55.1 -20.79,109.5 -22.22,116.9 6.86,14.5 13.71,29 20.56,43.5 z M 7357.22,7637 c 37.05,-19.3 83.82,5.5 102.73,41.3 26.18,49.4 9.67,100.3 -27.4,117.7 -38.7,18.1 -83.25,0.7 -106.89,-46.3 -21.92,-43.6 -7.03,-96.4 31.56,-112.7" /><path
         id="path140"
         style="fill:#f47458;fill-opacity:1;fill-rule:nonzero;stroke:none"
         d="m 7605.09,10118 c 0,0 -163.01,3.6 -246.34,-123.1 -83.32,-126.8 -173.88,-489.1 -36.23,-739.1 137.67,-249.9 313.36,-188.3 385.82,-163 72.45,25.4 215.55,81.5 288,315.2 72.45,233.7 19.92,758.9 -391.25,710" /><path
         id="path142"
         style="fill:#466eb6;fill-opacity:1;fill-rule:nonzero;stroke:none"
         d="m 3899.51,8914.2 c 0,0 118.13,17.8 219.48,-365.7 114.87,-434.6 -8.81,-884.7 -198.83,-998.7 -190.02,-114 -268.31,-92 -268.31,-92 l 29.83,-268.1 c 0,0 561.41,125.7 637.87,605.6 125.31,786.5 -244.35,1191.6 -244.35,1191.6 0,0 -69.52,-11.1 -91.11,-19.9 -23.08,-9.4 -84.58,-52.8 -84.58,-52.8" /><path
         id="path144"
         style="fill:#f7a491;fill-opacity:1;fill-rule:nonzero;stroke:none"
         d="m 3609.32,8006 c 0,0 0,-463.7 0,-561.5 0,-97.8 112.3,-760 249.96,-986.8 137.66,-226.8 324.26,-479.7 362.88,-494.2 38.62,-14.5 122.56,-67.7 166.03,-24.2 43.47,43.5 77.88,23.6 132.23,47.1 54.34,23.6 -7.25,101.4 -83.32,177.5 -76.08,76.1 -92.38,94.2 -79.7,106.9 12.67,12.7 74.26,-58 106.87,-47.1 32.6,10.9 -19.92,125 -105.07,164.8 -85.12,39.9 -220.97,117.7 -233.65,159.4 -12.68,41.7 -12.68,30.8 -12.68,41.7 0,10.8 -95.99,668.3 -95.99,797 0,128.6 -38.04,547 -38.04,547 l -369.52,72.4" /><path
         id="path146"
         style="fill:#50bfa5;fill-opacity:1;fill-rule:nonzero;stroke:none"
         d="m 3866.12,8894.3 c -49.4,-6.2 -183.44,-55.1 -230.53,-214.5 -47.09,-159.4 -171.17,-612.2 -149.44,-833.2 0,0 528.91,-68.8 528.91,-47.1 0,21.8 115.7,588.7 57.96,836.9 -50.36,216.4 -121.03,268.6 -206.9,257.9" /><path
         id="path148"
         style="fill:#466eb6;fill-opacity:1;fill-rule:nonzero;stroke:none"
         d="m 4642.86,8874 367.68,-1321.4 v 0 c -16.21,172.6 -34,337.4 -51.79,457.1 -59.77,402.1 -233.65,840.2 -233.65,840.2 0,0 -32.36,9.7 -82.24,24.1" /><path
         id="path150"
         style="fill:#3c8f7c;fill-opacity:1;fill-rule:nonzero;stroke:none"
         d="M 6786.21,6210.4 H 7803.64 V 7607.2 L 6786.21,7552.8 V 6210.4" /><path
         id="path152"
         style="fill:#3c8f7c;fill-opacity:1;fill-rule:nonzero;stroke:none"
         d="m 6786.21,7661.7 h 972.21 c 24.97,0 45.22,-24.4 45.22,-54.5 v 0 c 0,-30 -20.25,-54.4 -45.22,-54.4 h -972.21 l 0.83,0.3 c 67.18,30.4 66.81,78.4 -0.83,108.6" /><path
         id="path154"
         style="fill:#fae0b2;fill-opacity:1;fill-rule:nonzero;stroke:none"
         d="m 6814.01,7645.6 h 910.95 c 17.58,0 31.83,-17.2 31.83,-38.4 v 0 c 0,-21.1 -14.25,-38.3 -31.83,-38.3 h -910.93 c 30.86,23.7 30.81,53 -0.02,76.7" /><path
         id="path156"
         style="fill:#f47458;fill-opacity:1;fill-rule:nonzero;stroke:none"
         d="m 8289.77,8710.6 c 0,0 -76.19,-76.3 -157.7,-365.8 -81.5,-289.5 -123.06,-967.3 -193.69,-1037.9 -70.65,-70.7 -532.54,-438.4 -615.86,-425.7 -83.31,12.7 -269.88,230 -327.84,230 -57.97,0 -50.72,-52.5 -21.73,-81.5 28.97,-28.9 64.29,-62.5 47.09,-79.7 -17.21,-17.2 -17.21,-17.2 -17.21,-17.2 0,0 -258.11,68 -301.58,42.6 -43.47,-25.4 41.66,-85.1 41.66,-128.6 0,-43.5 -10.64,-42.7 -5.44,-90.6 5.21,-47.9 17.21,-86 39.85,-108.7 22.65,-22.6 307.92,-105 586.86,-67 278.95,38.1 619.47,172.1 871.25,483.7 251.77,311.5 201.34,1290.7 195.62,1388.3 -14.49,247.3 -141.28,258.1 -141.28,258.1" /><g
         transform="scale(1.42793)"
         id="g158"><path
           id="path160"
           style="fill:#50bfa5;fill-opacity:1;fill-rule:nonzero;stroke:none"
           d="m 15558.2,9818.8 148.3,29.5 36.1,149.73 168.6,21.27 -10.8,171.5 189.6,32.5 9.5,159.1 177.2,61 23.3,-67 -132.4,-45.7 -10.1,-167.8 -182.2,-31.3 11,-174.32 -186.1,-23.5 -35.2,-146.22 -137.5,-27.35 -3,-100.92 -71,2.35 4.7,157.16" /></g><g
         transform="scale(1.34097)"
         id="g162"><path
           id="path164"
           style="fill:#f47458;fill-opacity:1;fill-rule:nonzero;stroke:none"
           d="m 15667.9,9142.96 94.1,172.25 -88.6,175.17 c -10,19.96 7.1,42.81 29.1,38.68 l 192.9,-36.27 139.3,138.35 c 15.8,15.75 42.8,6.48 45.7,-15.69 l 25.1,-194.66 174.7,-89.67 c 19.8,-10.21 19.4,-38.8 -0.9,-48.36 l -177.4,-84.05 -31.2,-193.75 c -3.6,-22.08 -31,-30.47 -46.3,-14.22 l -134.7,142.73 -194,-30.09 c -22,-3.42 -38.5,19.97 -27.8,39.58" /></g><path
         id="path166"
         style="fill:#f7cc7f;fill-opacity:1;fill-rule:nonzero;stroke:none"
         d="m 4017.17,12997.5 155.09,212.6 -87.25,248.3 c -9.94,28.3 16.87,55.7 45.37,46.4 l 250.17,-81.8 209.2,159.8 c 23.82,18.1 58.17,1.1 58.12,-28.9 l -0.48,-263.2 216.55,-149.6 c 24.65,-17 19.07,-54.9 -9.45,-64.2 l -250.47,-80.8 -75.37,-252.2 c -8.58,-28.7 -46.37,-35.1 -63.95,-10.8 l -154.31,213.2 -263.14,-6.3 c -29.96,-0.7 -47.74,33.3 -30.08,57.5" /><path
         id="path168"
         style="fill:#f7cc7f;fill-opacity:1;fill-rule:nonzero;stroke:none"
         d="m 8945.6,14655.4 c -10.13,146 100.01,272.6 245.99,282.7 146,10.1 272.56,-100 282.7,-246 10.13,-146 -100,-272.5 -246,-282.7 -145.98,-10.1 -272.55,100 -282.69,246" /><path
         id="path170"
         style="fill:#f7cc7f;fill-opacity:1;fill-rule:nonzero;stroke:none"
         d="m 9394.96,13907.2 c -15.82,76.8 -25.39,159.1 -51.61,233.2 -22.56,63.7 -121.98,44.2 -116.94,-24.2 6.17,-83.8 32.34,-168.7 49.9,-250.8 7.11,-33.2 51.08,-48.7 80.2,-38.5 35.58,12.5 45.32,46.8 38.45,80.3 v 0" /><path
         id="path172"
         style="fill:#f7cc7f;fill-opacity:1;fill-rule:nonzero;stroke:none"
         d="m 9849.07,14235.4 c -87.83,51.8 -164.37,116 -245.41,177.2 -63.31,47.8 -131.56,-34.5 -79.49,-91.3 74.78,-81.7 172.95,-145.5 267.72,-201.4 30,-17.7 71.69,-0.4 86.34,29.2 16.42,33.1 0.9,68.6 -29.16,86.3 v 0" /><path
         id="path174"
         style="fill:#f7cc7f;fill-opacity:1;fill-rule:nonzero;stroke:none"
         d="m 9682.74,14709.8 c -19.87,-16 -23.85,-38.9 -11.57,-61.2 29.7,-53.8 105.09,-51.2 158.63,-49.4 55.87,2 111.75,13.3 164.58,31.3 78.12,26.7 35.72,147.9 -42.62,121.1 -153.27,-52.3 -211.3,4.5 -269.02,-41.8" /><path
         id="path176"
         style="fill:#f7cc7f;fill-opacity:1;fill-rule:nonzero;stroke:none"
         d="m 9598.36,15225 c -77.11,-112.8 -140.13,-150.9 -130.32,-213 5.73,-36.3 34.44,-53.7 69.49,-45.7 41.43,9.4 63.99,53.3 88.82,84.1 23.82,29.6 47.18,59.2 68.44,90.7 19.3,28.6 22.01,65.6 -6.26,90.2 -23.7,20.6 -70.58,22.4 -90.17,-6.3 v 0" /><path
         id="path178"
         style="fill:#f7cc7f;fill-opacity:1;fill-rule:nonzero;stroke:none"
         d="m 9297.9,15244.6 c -24.66,68.3 -30.07,93.2 -62.05,125 -27.8,27.6 -86.48,10 -90.37,-30.7 -4.52,-47.5 5.41,-65.1 31.33,-137 11.75,-32.5 48.96,-50.7 81.85,-39.2 32.6,11.4 51.04,49.1 39.24,81.9 v 0" /><path
         id="path180"
         style="fill:#f7cc7f;fill-opacity:1;fill-rule:nonzero;stroke:none"
         d="m 8973.37,15079.1 c -111.18,84.4 -133.79,108.2 -177.46,103.6 -25.61,-2.7 -54.36,-27.3 -48.77,-56 10.39,-53.4 41.45,-67.9 143.68,-142.5 27.41,-20 65.07,-21 88.7,6.2 21.18,24.3 21,68 -6.15,88.7 v 0" /><path
         id="path182"
         style="fill:#f7cc7f;fill-opacity:1;fill-rule:nonzero;stroke:none"
         d="m 8526.79,14691.9 c -43.81,-23.2 -26.21,-99 21.24,-105.2 45.49,-5.9 63.04,1.4 283.76,41.7 34.08,6.2 62.16,31.1 59.56,68.4 -2.2,31.7 -34.13,65.8 -68.45,59.6 -229.22,-41.4 -252.16,-41.2 -296.11,-64.5" /><path
         id="path184"
         style="fill:#f7cc7f;fill-opacity:1;fill-rule:nonzero;stroke:none"
         d="m 8872.58,14330.8 c -120.97,-117 -138.68,-96.4 -186.45,-167.9 -21.85,-32.8 14.18,-85 52.21,-78 48.82,9 61.93,17.2 125.56,67.6 36.96,29.3 72.31,60.7 106.27,93.4 25.18,24.3 18.39,69.8 -6.33,91.3 -28.25,24.6 -66.08,18 -91.26,-6.4 v 0" /><path
         id="path186"
         style="fill:#86b1f2;fill-opacity:1;fill-rule:nonzero;stroke:none"
         d="m 6876.33,14596.5 210.39,139.5 -82.4,167.7 202.81,144.7 -54.95,174.4 138.3,128.2 -54.28,52.6 -184.97,-171.5 52.07,-165.2 -210.98,-150.6 81.05,-165 -190.67,-126.3 93.63,-28.5" /><g
         transform="scale(1.45484)"
         id="g188"><path
           id="path190"
           style="fill:#f7cc7f;fill-opacity:1;fill-rule:nonzero;stroke:none"
           d="m 16269.9,9128.74 -169,39.05 -44.7,-120.41 -168.1,32.73 -61.1,-109.83 -129.3,8.38 -0.6,-51.96 173,-11.19 57.8,104.08 175,-34.05 43.9,118.42 153.2,-35.38 -30.1,60.16" /></g><path
         id="path192"
         style="fill:#f48c7f;fill-opacity:1;fill-rule:nonzero;stroke:none"
         d="m 6572.93,13208.4 c 0,0 77.18,86.4 211.93,73.4 120.15,-11.6 193.74,-115.1 183.01,-226.3 -12.44,-128.7 -140.01,-270.1 -445.82,-374.2 -280.25,160.6 -378.43,323.9 -366,452.6 10.75,111.2 102.76,198.7 222.91,187.1 134.76,-13 193.97,-112.6 193.97,-112.6" /><path
         id="path194"
         style="fill:#f48c7f;fill-opacity:1;fill-rule:nonzero;stroke:none"
         d="m 5574.75,13253.5 c 114.88,-30.2 208.77,-48.7 301.89,-62.5 30.7,-4.5 82.62,-21.5 107.78,1.7 13.08,12.1 17.28,28.5 7,44.2 -18.85,28.9 -66.59,25.7 -97.52,30.3 -94.32,14 -200.37,34.3 -306.37,61.1 -19.86,5 -40.52,-11.9 -43.79,-31 -3.72,-21.7 11.13,-38.6 31.01,-43.8 v 0" /><path
         id="path196"
         style="fill:#f48c7f;fill-opacity:1;fill-rule:nonzero;stroke:none"
         d="m 7113.04,12777.1 c 45.01,-7.5 90.13,-14.1 135.25,-20.9 43.16,-6.4 93.03,-21.6 136.11,-13 31.79,6.3 40.57,46 10.52,62.1 -38.86,20.9 -90.28,20.9 -133.57,27.3 -45.15,6.6 -90.27,13.3 -135.51,19.3 -48.33,6.3 -61.17,-66.8 -12.8,-74.8 v 0" /><path
         id="path198"
         style="fill:#f48c7f;fill-opacity:1;fill-rule:nonzero;stroke:none"
         d="m 5901.96,12600.3 c 70.94,86.4 144.3,105.3 202.47,133.8 31.1,15.2 21.81,59.2 -13.51,59 -96.77,-0.6 -189.79,-73.2 -247.61,-145.2 -30.44,-37.8 27.71,-85.3 58.65,-47.6 v 0" /><path
         id="path200"
         style="fill:#f48c7f;fill-opacity:1;fill-rule:nonzero;stroke:none"
         d="m 6385.83,12283.4 c 5.28,46.9 19.26,91.4 43,132.2 14.54,25 79.53,91.1 28.67,113 -47.9,20.7 -87.2,-57.3 -104.36,-90.1 -23,-44 -37.34,-92.9 -42.43,-142.2 -4.99,-48.5 69.6,-61.7 75.12,-12.9 v 0" /><path
         id="path202"
         style="fill:#f48c7f;fill-opacity:1;fill-rule:nonzero;stroke:none"
         d="m 6811.36,12509.2 c 22.29,-22 44.6,-44 66.9,-66 22.24,-22 42.2,-52.1 76.24,-50.3 19.14,0.9 29.23,18.4 29.66,35.5 0.77,31.1 -36.47,55.2 -56.9,75.1 -22.42,21.9 -44.84,43.7 -67.26,65.6 -14.91,14.5 -41.98,9.5 -54.26,-5.6 -14.18,-17.5 -9.27,-39.6 5.62,-54.3 v 0" /><path
         id="path204"
         style="fill:#f48c7f;fill-opacity:1;fill-rule:nonzero;stroke:none"
         d="m 6304.86,13532 c -60.67,245 -58.62,245.8 -75.07,267.8 -16.84,22.4 -55.14,14.7 -59.6,-14 -4.43,-28.4 -3.2,-23.8 61.6,-281.3 5.15,-20.4 32.12,-29.6 50.27,-22.8 21.67,8.2 27.91,29.7 22.8,50.3 v 0" /><path
         id="path206"
         style="fill:#f48c7f;fill-opacity:1;fill-rule:nonzero;stroke:none"
         d="m 6716.63,13471.9 c 20.83,36 37.58,73.8 50.3,113.4 11.82,36.8 34.9,91.6 3.85,123.2 -6.66,6.8 -20.78,8.8 -29.23,4.8 -35.33,-16.9 -36.5,-69.3 -47.54,-103.2 -12.04,-36.9 -28.06,-72.6 -46.2,-107 -9.53,-18.1 1,-41.9 18.8,-50 20.12,-9.2 39.75,1.1 50.02,18.8 v 0" /><path
         id="path208"
         style="fill:#f48c7f;fill-opacity:1;fill-rule:nonzero;stroke:none"
         d="m 7291.52,13345.7 c 9.4,16.5 -2.19,35.2 -16.37,43.5 -29.19,17.1 -74.58,-6.9 -103.03,-18.3 -33.14,-13.3 -64.67,-29.8 -95.23,-48.2 -17.62,-10.7 -19.76,-37.6 -8.41,-53.3 13.28,-18.3 35.17,-18.4 53.22,-8.4 117.88,65.6 146.63,43.9 169.82,84.7" /><path
         id="path210"
         style="fill:#f7cc7f;fill-opacity:1;fill-rule:nonzero;stroke:none"
         d="m 10428.5,13185.4 -156.7,-357.6 -397.6,7.3 1.89,104 328.21,-5.9 161.9,369.4 444,-80.9 77.3,258.8 97.3,-38.1 -101.6,-339.9 -454.7,82.9" /><path
         id="path212"
         style="fill:#86b1f2;fill-opacity:1;fill-rule:nonzero;stroke:none"
         d="m 12600.4,15788.1 c -27.4,-215.7 197.3,-386.9 397.1,-373.4 220.8,14.9 408.2,196.1 440.5,413.1 35,235 -106.2,422.8 -324.6,440.1 -212.6,16.7 -348.6,-172.5 -287.2,-363.5 44.1,-136.9 169,-187.9 232,-150.1 49,29.4 46.1,103.7 -13.3,116.8 -23.8,5.2 -48.4,-8 -61,-26.3 -52,20.6 -101.5,115.3 -67.9,217.5 42.9,130.6 207.9,138 310.5,77.1 130.4,-77.5 151,-244.4 103.1,-377.4 -50.2,-139.6 -187.4,-249.6 -336.7,-260.2 -169.1,-12 -318,117.6 -331.5,286.1 -3.2,39.8 -56.1,38.8 -61,0.2" /><g
         transform="scale(1.22937)"
         id="g214"><path
           id="path216"
           style="fill:#86b1f2;fill-opacity:1;fill-rule:nonzero;stroke:none"
           d="m 16296.9,11056.4 c -17.2,176.1 -226.2,271.4 -382.3,224.7 -172.4,-51.6 -288.4,-229 -275,-407 14.6,-192.7 160.4,-316.3 336.7,-290.6 171.7,25 245.5,199.6 162.4,340 -59.6,100.7 -167.9,118.6 -211,77.3 -33.7,-32.2 -17.9,-90.5 31.6,-90.2 19.8,0.1 36.9,15 43.6,31.8 44.9,-7 101.2,-73.2 93,-160.3 -10.5,-111.3 -140.1,-147 -232.4,-117.1 -117.4,37.9 -163.7,166.7 -149.7,280.8 14.7,119.8 103.6,231.8 220.2,267 132,40 273.4,-36 314.4,-167.2 9.8,-31 51.6,-20.7 48.5,10.8" /></g><g
         transform="scale(1.34828)"
         id="g218"><path
           id="path220"
           style="fill:#f7a491;fill-opacity:1;fill-rule:nonzero;stroke:none"
           d="m 15832.5,2916.38 c 0,0 17.4,-150.42 17.4,-176 0,-25.52 0,-25.52 0,-25.52 l -12.4,-25.96 -5,-10.31 90,-126.31 c 0,0 361.4,-5.34 369.4,-5.34 8.1,0 -48.3,87.3 -48.3,87.3 0,0 -119.6,90.04 -141.1,153.16 -21.4,63.19 18.3,194.84 18.3,194.84 l -288.3,-65.86" /></g><g
         transform="scale(1.16552)"
         id="g222"><path
           id="path224"
           style="fill:#f7a491;fill-opacity:1;fill-rule:nonzero;stroke:none"
           d="m 16300,4415.19 c 0,0 -148.9,-92.4 -172,-110.77 -23.1,-18.36 -23.1,-18.36 -23.1,-18.36 l -14.6,-29.94 -5.7,-11.93 -179.2,-9.26 c 0,0 -264.8,323.54 -270.5,330.84 -5.8,7.29 76.1,-10.99 76.1,-10.99 0,0 167.1,-22.56 239.8,3.35 72.7,26 219.7,170.74 219.7,170.74 l 129.5,-313.68" /></g><g
         transform="scale(1.35233)"
         id="g226"><path
           id="path228"
           style="fill:#50bfa5;fill-opacity:1;fill-rule:nonzero;stroke:none"
           d="m 15214.5,5212.77 -1382.2,-1177.29 212.9,-301.41 c 0,0 1420.5,882.03 1494.8,892.02 74.3,10.05 134.6,-24.11 148.7,-78.31 14,-54.28 49.8,-1681.91 49.8,-1681.91 h 369 l 192.5,2049.2 -1085.5,297.7" /></g><g
         transform="scale(1.50923)"
         id="g230"><path
           id="path232"
           style="fill:#f7a491;fill-opacity:1;fill-rule:nonzero;stroke:none"
           d="m 15417.2,6175.48 c 91.7,60.09 306.9,291.07 379.9,369.72 0.7,9.22 7.7,62.69 66.3,130.55 41.4,47.97 72.8,157.39 100,126.37 27.1,-31.01 -40.3,-117.94 -9.4,-118.51 30.9,-0.57 184,171.58 208.6,143.48 24.6,-28.11 -130.9,-181.15 -103.3,-181.65 27.6,-0.52 153.9,154.48 188.7,114.74 34.8,-39.74 -165.5,-168.59 -146.8,-189.93 18.6,-21.27 142.7,63.18 170.8,31.21 28,-32 -175.1,-107.34 -158.9,-107.67 16.3,-0.27 133.4,2.91 134.3,-19.68 1,-25.51 -296.4,-65.2 -332.8,-109.33 v 0 c -77.8,-123.71 -216,-349.71 -356.1,-448.84 C 15387.1,5794.62 14991,5537.2 14991,5537.2 l -196.7,254.24 c 0,0 514.3,312.81 622.9,384.04" /></g><g
         transform="scale(1.47891)"
         id="g234"><path
           id="path236"
           style="fill:#f48c7f;fill-opacity:1;fill-rule:nonzero;stroke:none"
           d="m 16281,6764.79 c 7.8,-15.31 11.2,-32.01 12.2,-48.78 -0.6,-2.7 6.8,-56.94 -39.4,-98.18 18,33.54 37.8,70.8 27.2,146.96" /></g><g
         transform="scale(1.30575)"
         id="g238"><path
           id="path240"
           style="fill:#f7a491;fill-opacity:1;fill-rule:nonzero;stroke:none"
           d="m 15721.1,7459.25 c -84.1,94.73 -254.4,417.48 -312,527.24 1.9,10.56 10.3,72.27 -34.6,165.73 -31.7,66.02 -33.6,197.57 -73.3,171.18 -39.7,-26.39 9.3,-143.73 -25.4,-135.04 -34.5,8.69 -153.4,247.04 -189.4,223.12 -36,-23.92 91.3,-241.66 60.4,-233.89 -31,7.78 -125,218.86 -175.8,185.04 -50.8,-33.81 133.7,-238.09 106.4,-256.22 -27.3,-18.14 -140.2,113.6 -181.1,86.38 -40.9,-27.21 162.8,-172.65 144.6,-168.07 -18.2,4.57 -148,43.51 -155.7,18.62 -8.8,-28.14 310.9,-162.33 338.2,-222.58 v 0 c 49.3,-161.52 135.3,-455.48 261.6,-608.42 154.5,-187.17 518.6,-593.99 518.6,-593.99 l 296.4,224.16 c 0,0 -479.3,504.39 -578.9,616.74" /></g><g
         transform="scale(1.22238)"
         id="g242"><path
           id="path244"
           style="fill:#f48c7f;fill-opacity:1;fill-rule:nonzero;stroke:none"
           d="m 16300,8681.64 c -13.9,-15.46 -23.1,-33.83 -29.7,-53.1 -0.2,-3.36 -25.9,-64.35 15.1,-127.1 -10.4,44.86 -21.9,94.66 14.6,180.2" /></g><g
         transform="scale(1.40296)"
         id="g246"><path
           id="path248"
           style="fill:#355389;fill-opacity:1;fill-rule:nonzero;stroke:none"
           d="m 15220.6,6319.65 v 0 c 40.2,59.87 109.3,93.88 181.2,88.96 211.6,-14.4 640.6,-48.26 681.3,-88.96 54.2,-54.24 216.9,-407.99 61.9,-903.8 -154.8,-495.74 -240.1,-444.14 -366.6,-444.14 -126.5,0 -723,281.48 -723,281.48 l 165.2,1066.46" /></g><g
         transform="scale(1.42129)"
         id="g250"><path
           id="path252"
           style="fill:#f7cc7f;fill-opacity:1;fill-rule:nonzero;stroke:none"
           d="m 14663.6,6653.58 -245.5,-320.34 304.7,-453.46 c 0,0 -28.6,-336.87 -72.6,-442.06 -43.9,-105.12 -298.2,-537.12 -298.2,-537.12 0,0 617.5,-378.53 1221.5,-323.08 0,0 170.2,875.54 217.9,959.62 47.8,84.14 508.6,500.88 508.6,500.88 l -223.7,361.29 -386.2,-214.1 c 0,0 -705.7,114.05 -739.7,148.03 -34.1,33.98 -286.8,320.34 -286.8,320.34" /></g><g
         transform="scale(1.39707)"
         id="g254"><path
           id="path256"
           style="fill:#f47458;fill-opacity:1;fill-rule:nonzero;stroke:none"
           d="m 15728.2,7435.34 c 0,0 -242.4,128.36 -325.4,-84.28 0,0 -217.8,22.04 -180.2,-203.59 0,0 -219.2,-110.16 -80.4,-394.11 0,0 -60.9,-267.06 251.5,-283.95 0,0 46.7,-94.63 189.3,-72.58 142.7,22.05 178.9,59.62 178.9,59.62 0,0 252.9,-73.87 329.4,154.33 0,0 173.7,41.44 57,264.48 0,0 151.7,289.11 -115.4,375.97 0,0 -31.1,295.6 -304.7,184.11" /></g><g
         transform="scale(1.36968)"
         id="g258"><path
           id="path260"
           style="fill:#f7a491;fill-opacity:1;fill-rule:nonzero;stroke:none"
           d="m 16142.7,6945.15 c -20.1,-56.07 -5.7,-112.51 32.2,-126.09 37.9,-13.58 84.9,20.88 105,76.96 20.1,56.07 5.6,112.5 -32.3,126.08 -37.8,13.58 -84.9,-20.88 -104.9,-76.95" /></g><g
         transform="scale(1.31288)"
         id="g262"><path
           id="path264"
           style="fill:#f7a491;fill-opacity:1;fill-rule:nonzero;stroke:none"
           d="m 16145.1,7389.27 c -2.9,-62.08 28.8,-114.03 70.7,-116.01 41.9,-1.98 78.3,46.69 81.3,108.77 2.9,62.08 -28.7,114.03 -70.7,116 -41.9,1.99 -78.4,-46.69 -81.3,-108.76" /></g><g
         transform="scale(1.3486)"
         id="g266"><path
           id="path268"
           style="fill:#f7a491;fill-opacity:1;fill-rule:nonzero;stroke:none"
           d="m 16004.7,6793.26 c 0,-3.93 -32.6,-144.22 -49.9,-218.3 -6.5,-27.66 7.5,-55.98 33.3,-67.77 69.1,-31.52 204.9,-75.49 298.8,9.49 8.5,7.79 13.1,18.98 12.7,30.55 l -11.5,334.64 -283.4,-88.61" /></g><g
         transform="scale(1.34796)"
         id="g270"><path
           id="path272"
           style="fill:#f48c7f;fill-opacity:1;fill-rule:nonzero;stroke:none"
           d="m 15994.9,6717.94 c 73,-36.87 165,-37.61 268.2,22.85 13,7.72 25.3,15.81 36.9,24.41 l -4.2,119.96 -283.4,-88.65 c 0,-1.93 -7.7,-35.76 -17.5,-78.57" /></g><g
         transform="scale(1.36637)"
         id="g274"><path
           id="path276"
           style="fill:#f7a491;fill-opacity:1;fill-rule:nonzero;stroke:none"
           d="m 15994.9,7467.61 c 0,0 122.1,-32.24 193.8,-151.02 71.7,-118.78 111.3,-462.1 -144.9,-612.28 -256.1,-150.17 -442.4,82.41 -437.6,302.41 4.8,220 102.6,501.23 388.7,460.89" /></g><g
         transform="scale(1.31868)"
         id="g278"><path
           id="path280"
           style="fill:#466eb6;fill-opacity:1;fill-rule:nonzero;stroke:none"
           d="m 16140.3,6814.16 c -122.2,-92.37 -250.1,-565.95 -298.6,-689.55 l -38.9,-227.05 497.2,878.3 c 0,0 -133.4,58.24 -159.7,38.3" /></g><g
         transform="scale(1.37439)"
         id="g282"><path
           id="path284"
           style="fill:#466eb6;fill-opacity:1;fill-rule:nonzero;stroke:none"
           d="m 16065.3,6423.01 c 0,0 -14.3,-559.81 27.9,-752.19 42.2,-192.45 152.5,-259.68 152.5,-259.68 l 54.3,223.88 c 0,0 -54.3,494.4 -74.4,761.29 -2.9,40.52 -160.3,26.7 -160.3,26.7" /></g><g
         transform="scale(1.36465)"
         id="g286"><path
           id="path288"
           style="fill:#13375b;fill-opacity:1;fill-rule:nonzero;stroke:none"
           d="m 15577.5,2430.37 c -54.5,6.96 39.7,196.02 70,226.28 l 401.2,-54 c 0,0 193.2,-89.55 239,-135.35 10.8,-10.85 12.3,-29.9 -34.9,-36.93 -151.4,-22.5 -554.3,-15.32 -675.3,0" /></g><g
         transform="scale(1.15053)"
         id="g290"><path
           id="path292"
           style="fill:#13375b;fill-opacity:1;fill-rule:nonzero;stroke:none"
           d="m 16136.8,4076.22 c 55.8,-33.55 157.5,184.87 163.2,235.37 l -384.3,302.55 c 0,0 -296.4,85.01 -356.2,25.21 -54.4,-54.32 450.4,-486.91 577.3,-563.13" /></g><path
         id="path294"
         style="fill:#96d9c9;fill-opacity:1;fill-rule:nonzero;stroke:none"
         d="m 11978.6,14868.3 -317.9,-409.4 684.7,-120.4 z" /><g
         transform="scale(1.07215)"
         id="g296"><path
           id="path298"
           style="fill:#466eb6;fill-opacity:1;fill-rule:nonzero;stroke:none"
           d="m 15078.5,15687.4 734.9,-1008.6 486.6,532.1 -1221.5,476.5" /></g><g
         transform="scale(1.07648)"
         id="g300"><path
           id="path302"
           style="fill:#9bc1f9;fill-opacity:1;fill-rule:nonzero;stroke:none"
           d="m 16300,15427.4 -65.6,-277.7 -1216.5,474.5 1282.1,-196.8" /></g><g
         transform="scale(1.07215)"
         id="g304"><path
           id="path306"
           style="fill:#9bc1f9;fill-opacity:1;fill-rule:nonzero;stroke:none"
           d="m 16300,15104.5 -1221.5,582.9 1135.3,-1008.6 86.2,425.7" /></g><g
         transform="scale(1.12342)"
         id="g308"><path
           id="path310"
           style="fill:#f7cc7f;fill-opacity:1;fill-rule:nonzero;stroke:none"
           d="m 15495.5,13936.6 c 0,-0.1 0,-0.2 0,-0.4 0,0.1 0,0.3 0,0.4 z m 768.5,-675 c -8.6,0.8 -213.4,21.9 -473.1,183.6 -260.7,162.3 -358.2,445.6 -358.2,491 0,17.4 14,31.5 31.4,31.5 17.2,0 31.1,-13.8 31.4,-30.9 2.8,-30.3 86.2,-287.2 328.6,-438.2 246.2,-153.3 443.9,-174.2 445.9,-174.4 17.3,-1.7 30,-17 28.3,-34.3 -1.7,-17.3 -17,-29.9 -34.3,-28.3" /></g><g
         transform="scale(1.24371)"
         id="g312"><path
           id="path314"
           style="fill:#f7cc7f;fill-opacity:1;fill-rule:nonzero;stroke:none"
           d="m 15841.9,11721.8 c -328.3,65.8 -642.2,187 -933.3,360.2 -239.7,142.7 -433,360.2 -677.5,480.9 -14.1,6.9 -19.8,24 -12.9,38 7,14.1 24,19.9 38.1,12.9 253.1,-125 444.9,-342.2 681.4,-483 285.5,-169.9 593.5,-288.8 915.4,-353.3 118.3,-23.8 258.5,-32.4 416.7,-25.9 15.7,0.7 28.9,-11.5 29.6,-27.2 0.6,-15.6 -11.5,-28.9 -27.2,-29.5 -140.6,-5.9 -291.8,-0.9 -430.3,26.9" /></g><path
         id="path316"
         style="fill:#f48c7f;fill-opacity:1;fill-rule:nonzero;stroke:none"
         d="m 10157.8,8858.3 c 17.6,1.2 150.7,-213.7 234.1,-543.4 83.3,-329.6 260.8,-938.2 260.8,-938.2 0,0 288,-581.5 365.9,-659.4 77.9,-77.9 153.4,2.7 231.8,-21.7 24.2,-7.5 99,-72.5 99,-72.5 0,0 134.7,-291.6 114.8,-311.5 -20,-19.9 -228.3,-76.1 -373.2,-29 -144.9,47.1 -818.7,836.8 -818.7,836.8 0,0 -549.24,1709.7 -114.5,1738.9" /><path
         id="path318"
         style="fill:#f4c0b8;fill-opacity:1;fill-rule:nonzero;stroke:none"
         d="m 12790,8596 -65.2,67.6 c 0,0 -119.5,-214.7 -257.2,-518.9 -137.6,-304.3 -302.5,-679.3 -358.6,-735.4 -56.2,-56.2 -528.9,-706.4 -672,-769.8 -143.1,-63.4 -98.8,-35.6 -213.8,-21.8 -86.2,10.3 -76.8,-52.1 -20.7,-81.1 15.2,-7.8 32.4,-13 66.8,-37.4 68.4,-48.5 126.9,-117.4 169.8,-157.6 16.6,-15.5 -18.1,-43.9 -37.6,-24.5 -20,20.1 -88.2,125.4 -116.7,125.4 -28.5,0 -9.5,-72 2.7,-95.1 12.3,-23.1 -14.9,-16.3 -39.3,40.7 -24.5,57.1 -42.2,114.1 -77.5,106 -28.5,-6.6 -11,-85.5 -3.2,-115.9 -8.2,28.9 -30.8,100.9 -52.5,100.9 -27.2,0 -39.4,-2.7 -39.4,-56.3 0,-53.7 19,-111.2 81.5,-158.5 62.5,-47.3 237.5,-15.8 309.4,12.9 49.1,19.5 98,99.3 147.2,125.9 219.8,118.5 445.6,260.1 725.3,633 342.3,456.5 475.9,864 475.9,864 L 12790,8596" /><path
         id="path320"
         style="fill:#f4c0b8;fill-opacity:1;fill-rule:nonzero;stroke:none"
         d="m 12663.2,3417.1 c 0,0 -36.2,152.1 0,336.9 36.3,184.8 231.9,1126.7 231.9,1322.3 0,195.6 94.2,481.8 94.2,481.8 l -576,144.9 -58,-561.5 c 0,0 -30.8,-1309.6 -83.3,-1362.1 -52.5,-52.6 -274.6,-130.1 -344.2,-130.1 -77.8,0 -201,-5.3 -201,-44.5 0,-39.2 10.9,-64.5 10.9,-64.5 l 925.5,-123.2" /><path
         id="path322"
         style="fill:#f4c0b8;fill-opacity:1;fill-rule:nonzero;stroke:none"
         d="m 13349.1,5640.7 71.3,-484.7 c 0,0 169.5,-1420.6 130.4,-1459.7 -39.1,-39.1 -216.7,-153.5 -298.3,-162.6 -81.5,-9 -196.2,-64.1 -196.2,-107.5 0,-87.9 916.5,-16.6 916.5,-16.6 0,0 29,65.5 0,161.5 -29,96 -29,231.8 -29,253.6 0,21.7 1.9,3.6 1.9,38 0,34.4 0,45.3 0,45.3 0,0 110.4,677.4 -7.3,1104.9 l -41.7,829.6 -547.6,-201.8" /><path
         id="path324"
         style="fill:#184655;fill-opacity:1;fill-rule:nonzero;stroke:none"
         d="m 9537.81,10380.7 c 0,0 -211.93,2.5 -358.64,-80.2 -146.21,-82.5 -185.48,-279.3 -188.22,-433.1 -3.54,-198.6 61.64,-398.6 185.5,-554.5 124.04,-156 342.34,-226.2 342.34,-226.2 l 614.31,391.6 c 0,0 73.1,182.4 21.5,426.9 -51.7,244.6 -38.1,513.6 -616.79,475.5" /><path
         id="path326"
         style="fill:#f48c7f;fill-opacity:1;fill-rule:nonzero;stroke:none"
         d="m 10573,4047.9 c 0,0 202.8,-291.6 217.3,-331.4 14.5,-39.9 114.1,-304.4 114.1,-304.4 l 778.9,378.6 -595.9,181.1 -119.5,260.9 -394.9,-184.8" /><path
         id="path328"
         style="fill:#355389;fill-opacity:1;fill-rule:nonzero;stroke:none"
         d="m 9551.4,6112.3 635.8,-1325.8 418.4,-836.9 c 0,0 371.3,143.1 463.7,235.5 l -300.7,1054.2 -342.3,1220.8 -719.7,65.5 -155.2,-413.3" /><path
         id="path330"
         style="fill:#f48c7f;fill-opacity:1;fill-rule:nonzero;stroke:none"
         d="m 8951.85,3913.4 c 0,0 28.98,-195.6 28.98,-208.3 0,-12.7 -43.48,-201 -50.72,-251.8 -7.25,-50.7 0,-90.5 0,-90.5 l 738.11,176.6 c 0,0 -109.58,71.5 -207.39,125.9 -97.81,54.3 -112.3,313.3 -112.3,313.3 l -396.68,-65.2" /><path
         id="path332"
         style="fill:#86b1f2;fill-opacity:1;fill-rule:nonzero;stroke:none"
         d="m 8848.6,6460.1 c 0,0 126.44,-795.3 108.69,-1061.4 -25.5,-382.1 -126.8,-528.9 -54.35,-1530.9 h 514.42 c 0,0 36.23,538.3 115.92,954.9 79.7,416.6 253.59,1115.8 253.59,1115.8 l 286.23,645 -1224.5,-123.4" /><path
         id="path334"
         style="fill:#f48c7f;fill-opacity:1;fill-rule:nonzero;stroke:none"
         d="m 9146.25,9450.1 c 24.82,-77.7 87.52,-127.1 140.06,-110.3 52.53,16.7 74.99,93.3 50.16,171 -24.81,77.8 -87.52,127.2 -140.05,110.4 -52.54,-16.8 -74.99,-93.4 -50.17,-171.1" /><path
         id="path336"
         style="fill:#f48c7f;fill-opacity:1;fill-rule:nonzero;stroke:none"
         d="m 10019.8,9616 c 6.9,-81.3 57,-143.4 112,-138.7 54.9,4.6 93.9,74.3 87,155.6 -6.9,81.3 -57.1,143.4 -112,138.8 -55,-4.7 -93.9,-74.4 -87,-155.7" /><g
         transform="scale(1.15021)"
         id="g338"><path
           id="path340"
           style="fill:#966259;fill-opacity:1;fill-rule:nonzero;stroke:none"
           d="m 15275.6,8144 c 101,109.37 313.8,564.73 385.8,694.08 -1.5,12.95 -7.3,88.34 49.3,198.75 40,78.01 50.2,237.44 93.6,202.85 43.3,-34.6 -19.3,-173.73 20.4,-165.45 39.8,8.28 189,289.61 228.3,258.26 39.3,-31.35 -118.2,-287.15 -82.7,-279.73 35.6,7.41 155,257.27 210.6,212.95 55.5,-44.33 -166.1,-280.04 -136.2,-303.82 29.8,-23.79 165.8,128.64 210.6,92.96 44.7,-35.68 -195.2,-198.78 -174.2,-194.41 20.8,4.34 170.4,43.12 177.7,12.42 8.2,-34.72 -362.5,-176.6 -397.1,-247.9 v 0 c -65.7,-192.66 -181.2,-543.56 -333.6,-720.83 -186.6,-216.92 -723.4,-818.37 -723.4,-818.37 l -223,422.97 c 0,0 574,505.56 693.9,635.27" /></g><g
         transform="scale(1.12142)"
         id="g342"><path
           id="path344"
           style="fill:#6b4744;fill-opacity:1;fill-rule:nonzero;stroke:none"
           d="m 16246.4,9230.14 c 14.2,-18.87 23.1,-40.85 29.2,-63.69 0,-3.94 24.4,-76.57 -23.8,-147.08 14,51.58 29.3,108.86 -5.4,210.77" /></g><path
         id="path346"
         style="fill:#fae0b2;fill-opacity:1;fill-rule:nonzero;stroke:none"
         d="m 8897.11,8714 c 0,0 59.77,-1542 0,-1830 -59.78,-288 -87.21,-474.9 -87.21,-474.9 0,0 826.23,-160.9 1619.6,51 0,0 -119.6,538 -173.9,1097.7 -54.3,559.7 -97.8,1300.5 -97.8,1300.5 0,0 -300.83,22.4 -532.54,1.2 -526.7,-48.3 -728.15,-145.5 -728.15,-145.5" /><path
         id="path348"
         style="fill:#f48c7f;fill-opacity:1;fill-rule:nonzero;stroke:none"
         d="m 9388.38,9250.4 -23.27,-421.9 c 0,0 39.57,-232.8 270.51,-246.4 230.94,-13.6 163.02,483.6 163.02,483.6 l -13.58,184.7 h -396.68" /><path
         id="path350"
         style="fill:#f27a6a;fill-opacity:1;fill-rule:nonzero;stroke:none"
         d="m 9791.22,8932.6 c 5.56,0 11.08,0.1 16.56,0.4 -1.29,75.3 -9.14,132.7 -9.14,132.7 l -13.58,184.7 h -396.68 l -3.49,-63.3 c 49.76,-84.7 196.2,-254.5 406.33,-254.5" /><path
         id="path352"
         style="fill:#3c8f7c;fill-opacity:1;fill-rule:nonzero;stroke:none"
         d="m 8944.15,3608.6 c 0,0 27.17,27.2 122.27,19.1 95.09,-8.2 571.92,-61.2 592.3,-61.2 20.37,0 293.2,-207.1 305.43,-244.7 12.22,-37.6 -589.36,-13 -589.36,-13 h -458.03 c 0,0 -43.25,136.8 27.39,299.8" /><path
         id="path354"
         style="fill:#3c8f7c;fill-opacity:1;fill-rule:nonzero;stroke:none"
         d="m 10833.8,3618.6 c 0,0 -27.9,-18.7 -27.9,-44.1 0,-16.8 28.4,-131.3 61.3,-212.8 19.1,-47.5 75.5,-67.5 120.4,-42.8 l 826.1,455.5 c 0,0 60.2,52.2 -329.4,76.8 l -650.5,-232.6" /><path
         id="path356"
         style="fill:#f48c7f;fill-opacity:1;fill-rule:nonzero;stroke:none"
         d="m 8897.11,8714 c 0,0 -117.34,-51.3 -186.17,-210.7 -68.82,-159.4 -289.81,-880.3 -141.28,-1311.4 0,0 66.91,-327.7 411.07,-552.4 344.15,-224.6 944.25,-278.6 978.21,-244.6 33.97,34 35.32,92.9 35.32,130.7 0,37.8 78.84,56.8 78.84,108.4 0,51.6 -133.18,60.7 -286.23,60.7 0,0 -27.17,2.7 6.34,28.1 33.51,25.3 76.07,57 68.83,105 -7.25,48 -38.5,45.8 -67.93,16.3 -29.44,-29.4 -126.79,-108.7 -204.68,-86 -77.88,22.6 -537.96,400.3 -614.03,519.8 0,0 30.39,1410.4 -78.29,1436.1" /><path
         id="path358"
         style="fill:#50bfa5;fill-opacity:1;fill-rule:nonzero;stroke:none"
         d="m 12724.8,8663.6 c 0,0 248,137.6 511.2,168.4 263.2,30.9 640.8,-67.9 640.8,-67.9 l 217.8,-3143.9 c 0,0 -978.1,-464.6 -1711.7,0 0,0 197,1320 197,1505.6 0,185.6 0,185.6 0,185.6 l 144.9,1352.2" /><path
         id="path360"
         style="fill:#13375b;fill-opacity:1;fill-rule:nonzero;stroke:none"
         d="m 11727.2,3577.4 c -26.1,3 -50.7,-12.4 -59.5,-37.1 -10.2,-28.5 -5.7,-54 15.6,-75.3 39,-38.9 718.7,-150.3 955.9,-145 25.2,0.5 61.2,75.4 24,97.1 -58,34 -756.7,140.1 -936,160.3" /><path
         id="path362"
         style="fill:#13375b;fill-opacity:1;fill-rule:nonzero;stroke:none"
         d="m 11927.8,3649.3 56.2,-114.5 125,-34.4 c 0,0 -58,204.7 -108.7,195.7 -50.7,-9.1 -72.5,-46.8 -72.5,-46.8" /><path
         id="path364"
         style="fill:#13375b;fill-opacity:1;fill-rule:nonzero;stroke:none"
         d="m 13056.2,3418.8 c -23.8,0.1 -45.3,-15 -52.7,-37.7 -5.9,-18.2 -7.9,-39.1 5.7,-52.8 29,-28.9 1002.3,-9 1002.3,-9 0,0 23.5,72.4 -18.8,86.9 -28,9.7 -767.2,12.2 -936.5,12.6" /><path
         id="path366"
         style="fill:#13375b;fill-opacity:1;fill-rule:nonzero;stroke:none"
         d="m 13349.5,3574.7 c -8.7,15.9 -75.8,-0.9 -97,-41 l 86.4,-124 101.4,0.4 -90.8,164.6" /><path
         id="path368"
         style="fill:#966259;fill-opacity:1;fill-rule:nonzero;stroke:none"
         d="m 15516.2,4203.2 c 0,0 -39.2,-340.5 -102.9,-489 -63.7,-148.6 -273.8,-242.3 -458.6,-278.8 -184.8,-36.4 -123.2,-65.5 -96.1,-92.6 27,-27 827.9,-45.3 969.1,-19.7 0,0 -54.3,278.8 -54.3,322.2 0,43.5 221,728.2 221,728.2 l -478.2,-170.3" /><path
         id="path370"
         style="fill:#f47458;fill-opacity:1;fill-rule:nonzero;stroke:none"
         d="m 15827.7,3323.1 c 0,0 -11,56.7 -23.2,123 -154.5,-20.7 -507.9,15.5 -685,36.1 -54.2,-20.5 -120.1,-26.6 -174.3,-37.3 -184.7,-36.4 -170.9,-84.9 -124.5,-118.6 30.9,-22.5 865.8,-28.8 1007,-3.2" /><g
         transform="scale(1.07895)"
         id="g372"><path
           id="path374"
           style="fill:#966259;fill-opacity:1;fill-rule:nonzero;stroke:none"
           d="m 15841.1,3969.6 c 0,0 -20,-387.88 21.5,-527.18 42.8,-143.57 104.2,-168.22 272.3,-215.03 165.1,-45.87 102.4,-119.37 77.3,-144.49 -25.1,-25.02 -602.8,-26.69 -733.7,-2.96 0,0 50.4,258.39 50.4,298.62 0,40.32 -61.2,692.52 -61.2,692.52 l 373.4,-101.48" /></g><g
         transform="scale(1.08899)"
         id="g376"><path
           id="path378"
           style="fill:#f47458;fill-opacity:1;fill-rule:nonzero;stroke:none"
           d="m 15335.8,3051.55 c 0,0 10.2,52.07 21.4,112.95 141.8,-19.01 466.4,14.23 629,33.15 56.2,-13.59 101.8,-24.89 151.4,-42.97 162.4,-59.33 147.9,-75.3 123,-100.19 -24.8,-24.79 -795,-26.45 -924.8,-2.94" /></g><path
         id="path380"
         style="fill:#f4c0b8;fill-opacity:1;fill-rule:nonzero;stroke:none"
         d="m 13876.8,8764.1 c 0,0 -211.9,-249.9 -103.2,-668.4 108.7,-418.4 371.3,-1084.9 695.5,-1456 52.5,-60 173.9,-186.8 228.3,-223 54.3,-36.3 284.3,-61.6 284.3,-61.6 0,0 101.5,311.5 72.5,340.5 -29,29 -272.6,31.7 -338.7,97.8 -66.2,66.1 -708.3,1970.7 -838.7,1970.7" /><path
         id="path382"
         style="fill:#966259;fill-opacity:1;fill-rule:nonzero;stroke:none"
         d="m 15926.7,8769.6 c 0,0 -61.1,-38.1 -104.5,-150.4 -43.5,-112.3 -269,-1036.1 -301.6,-1170.1 -25.2,-103.5 -253.9,-407.4 -367.4,-553.8 -33.5,-43.2 -59.2,-79.2 -75.5,-79.2 -99.6,0 -265,-55.3 -265,-96.6 0,-41.2 39.1,-45.6 104.3,-31.2 65.2,14.5 15.8,-56.1 -7.7,-79.6 -23.6,-23.6 -123.9,-157.9 -88.3,-193.4 35.5,-35.5 120.9,-60.2 160.7,-60.2 21.7,0 65.6,2.4 145.9,67.9 67.5,55.1 166.8,167.8 239.7,232.8 262,233.6 477.5,724.5 517.4,836.8 39.8,112.3 42,1277 42,1277" /><path
         id="path384"
         style="fill:#f4c0b8;fill-opacity:1;fill-rule:nonzero;stroke:none"
         d="m 15087.2,6582.4 c 0,0 27.2,-2.7 27.2,-55.7 0,-53 -46.2,-134.5 -77.4,-165.8 -31.3,-31.2 -317.4,44.8 -317.4,44.8 0,0 104.1,-2.6 139.6,41.5 15.9,19.7 46,112.1 75.9,112.1 29.9,0 -2.7,-125 -2.7,-125 0,0 57.1,164.4 86.9,164.4 29.9,0 32.6,-29.9 19,-80.2 -13.6,-50.2 30.5,78.4 48.9,63.9" /><g
         transform="scale(1.08271)"
         id="g386"><path
           id="path388"
           style="fill:#466eb6;fill-opacity:1;fill-rule:nonzero;stroke:none"
           d="m 14147,3850.89 c 0,0 391.5,-105.39 835.6,-105.39 444.1,0 1317.4,225.83 1317.4,225.83 0,0 -240.9,582.15 -323.7,1028.8 -82.9,446.66 -143,1214.45 -143,1214.45 h -1325.2 l -82.8,-531.53 -278.3,-1832.16" /></g><g
         transform="scale(1.05469)"
         id="g390"><path
           id="path392"
           style="fill:#fae0b2;fill-opacity:1;fill-rule:nonzero;stroke:none"
           d="m 15100.8,8314.84 c 0,0 -88.9,-103.07 -88.9,-422.5 0,-319.43 -15.4,-798.62 -41.1,-963.5 -25.8,-164.88 -103.1,-574.48 -103.1,-574.48 0,0 226.7,-188.02 814.1,-136.53 587.3,51.58 618.2,130.56 618.2,130.56 0,0 -82.4,1327.49 -82.4,1466.68 0,139.09 -126.1,541.48 -126.1,541.48 0,0 -339.3,35.09 -493.9,23.14 -154.5,-11.85 -496.8,-64.85 -496.8,-64.85" /></g><g
         transform="scale(1.0693)"
         id="g394"><path
           id="path396"
           style="fill:#13375b;fill-opacity:1;fill-rule:nonzero;stroke:none"
           d="m 14631.2,9437.9 c 0,0 -243.8,-69.18 -223.6,-319.41 18.7,-230.72 132.1,-219.03 132.1,-219.03 0,0 -83,-327.13 167.7,-422.05 236.4,-89.4 325.2,0 325.2,0 0,0 102.6,-271.58 453.2,-166.74 350.7,104.83 319.3,317.49 319.3,317.49 0,0 149.3,-58.73 322.2,215.66 172.7,274.48 74.1,472.08 -154.5,594.08 0,0 76.1,349.37 -273.6,405.27 -349.5,55.91 -435.3,-135.94 -435.3,-135.94 0,0 -62.2,214.15 -434.5,66.78 -244,-96.54 -198.2,-336.11 -198.2,-336.11" /></g><g
         transform="scale(1.03642)"
         id="g398"><path
           id="path400"
           style="fill:#966259;fill-opacity:1;fill-rule:nonzero;stroke:none"
           d="m 16092,9196.97 c -26.6,-74.1 -7.5,-148.68 42.6,-166.63 50.1,-17.95 112.2,27.5 138.8,101.7 26.6,74 7.5,148.68 -42.6,166.63 -50.1,17.94 -112.2,-27.6 -138.8,-101.7" /></g><path
         id="path402"
         style="fill:#966259;fill-opacity:1;fill-rule:nonzero;stroke:none"
         d="m 15828,9455.7 c 12.6,-80.6 67,-139.1 121.4,-130.6 54.5,8.5 88.5,80.8 75.9,161.4 -12.5,80.6 -66.9,139.1 -121.4,130.6 -54.5,-8.5 -88.5,-80.8 -75.9,-161.4" /><g
         transform="scale(1.0228)"
         id="g404"><path
           id="path406"
           style="fill:#966259;fill-opacity:1;fill-rule:nonzero;stroke:none"
           d="m 15912.1,8899.85 14.2,-309.84 c 0,0 7.1,-120.45 132.8,-136.38 125.8,-15.94 240.9,81.34 240.9,178.82 0,12.41 -62,437.42 -62,437.42 l -325.9,-170.02" /></g><g
         transform="scale(1.01976)"
         id="g408"><path
           id="path410"
           style="fill:#6b4744;fill-opacity:1;fill-rule:nonzero;stroke:none"
           d="m 16286.5,9096.94 -326.9,-170.53 5.1,-110.52 c 59.2,-0.39 146.7,4.32 216.9,46.19 59.1,35.2 92,79.92 118.4,141.6 -7.8,54.52 -13.5,93.26 -13.5,93.26" /></g><path
         id="path412"
         style="fill:#f48c7f;fill-opacity:1;fill-rule:nonzero;stroke:none"
         d="m 11202.5,6626.1 c 0,0 81.2,-52.5 129.4,-41 48.2,11.6 24.5,36.2 1.8,58.8 -22.6,22.7 -83.3,51.7 -83.3,51.7 l -47.9,-69.5" /><path
         id="path414"
         style="fill:#f48c7f;fill-opacity:1;fill-rule:nonzero;stroke:none"
         d="m 9597.89,10159.3 c -131.58,-19.4 -227.82,-112.6 -297.72,-226.4 -138.58,-225.5 -25.91,-557.5 12.13,-633.5 38.04,-76.1 190.19,-271.7 415.7,-271.7 225.51,0 383.1,206.5 402.1,407.5 25.5,269.2 -46.6,604.7 -302.78,698.2 -69.83,25.5 -152.54,37.3 -229.43,25.9" /><path
         id="path416"
         style="fill:#13375b;fill-opacity:1;fill-rule:nonzero;stroke:none"
         d="m 13227.5,10152.5 c 0,0 -111.4,5.4 -236.4,-54.3 -125,-59.8 -255.4,-328.6 -255.4,-567.7 0,-145.5 -64.4,-205.5 -114.8,-230.3 -27.1,-13.2 -34.4,-48.4 -14.5,-71 49.3,-56 100.6,-117.6 165.3,-155.2 245.2,-142.6 492.1,-147 767.6,-96.4 221.7,40.6 430.9,140.4 588.1,304 29.6,30.8 21.5,81.6 -16.1,101.8 -52,28 -113.4,88.2 -136.7,217.5 -43.4,241.9 -133.1,668.4 -747.1,551.6" /><path
         id="path418"
         style="fill:#f4c0b8;fill-opacity:1;fill-rule:nonzero;stroke:none"
         d="m 13559.6,9492.8 c -17.7,-79.7 11.6,-154 65.4,-165.9 53.9,-12 111.9,42.9 129.6,122.5 17.7,79.7 -11.6,153.9 -65.5,165.9 -53.8,12 -111.8,-42.9 -129.5,-122.5" /><path
         id="path420"
         style="fill:#f4c0b8;fill-opacity:1;fill-rule:nonzero;stroke:none"
         d="m 12763.2,9599 c 0,-81.6 44.7,-147.7 99.8,-147.7 55.2,0 99.9,66.1 99.9,147.7 0,81.6 -44.7,147.7 -99.9,147.7 -55.1,0 -99.8,-66.1 -99.8,-147.7" /><path
         id="path422"
         style="fill:#f4c0b8;fill-opacity:1;fill-rule:nonzero;stroke:none"
         d="m 13101.6,9073.8 -27.2,-373.1 c 0,0 12.7,-85.1 114.1,-103.2 101.5,-18.1 317,132.2 317,211.9 l -50.7,431.1 -353.2,-166.7" /><path
         id="path424"
         style="fill:#f7a491;fill-opacity:1;fill-rule:nonzero;stroke:none"
         d="m 13088.3,8891.8 c 160.2,-8 289.2,64.2 384.5,195.8 l -18,152.9 -353.2,-166.7 -13.3,-182" /><path
         id="path426"
         style="fill:#f4c0b8;fill-opacity:1;fill-rule:nonzero;stroke:none"
         d="m 12852.5,9408 c 24.5,-138.5 65.2,-382.4 282.6,-407.5 217.3,-25.1 380.4,92.4 483.6,304.3 103.3,211.9 78.8,491.8 21.7,630.3 -45.3,110.1 -241,104.9 -337.1,103.2 -322.2,-5.4 -504.9,-323.4 -450.8,-630.3" /><path
         id="path428"
         style="fill:#13375b;fill-opacity:1;fill-rule:nonzero;stroke:none"
         d="m 13170.4,10082.8 c 0,0 -3.4,-178.2 144.9,-326.5 148.3,-148.3 446.5,-225.8 446.5,-225.8 l 35.3,-83.7 c 0,0 47.1,266.4 -65.2,444 -112.3,177.5 -561.5,192 -561.5,192" /><g
         transform="scale(1.03374)"
         id="g430"><path
           id="path432"
           style="fill:#966259;fill-opacity:1;fill-rule:nonzero;stroke:none"
           d="m 15909.5,9799.71 c 0,0 152.6,-43.57 243.9,-197.61 91.5,-154 146.6,-596.47 -170,-785.4 -316.5,-188.82 -528.2,114.44 -550.3,396.53 -26.3,333.64 119.3,643.22 476.4,586.48" /></g><g
         transform="scale(1.6972)"
         id="g434"><path
           id="path436"
           style="fill:#f79c8d;fill-opacity:1;fill-rule:nonzero;stroke:none"
           d="m 15849.5,2558.28 c 0,0 91.6,-373.38 159.8,-432.01 68.2,-58.62 290.7,-170.75 232.5,-182.83 -58.2,-12.08 -489.1,-22.09 -477.3,49.79 11.8,71.88 24.2,117.66 24.2,117.66 l -114,266.74 174.8,180.65" /></g><g
         transform="scale(1.70032)"
         id="g438"><path
           id="path440"
           style="fill:#13375b;fill-opacity:1;fill-rule:nonzero;stroke:none"
           d="m 16240.9,1924.58 c -104.9,-10.41 -411.2,-21.47 -500.4,-10.06 0,0 -16.7,3.3 -5,75.05 2.9,17.52 5.8,33.52 8.6,47.64 80.9,-21.23 257.2,23.99 327,33.28 75.9,-36.34 161.4,-90.57 189,-95.1 39.9,-6.52 39.8,-44.93 -19.2,-50.81" /></g><g
         transform="scale(1.5487)"
         id="g442"><path
           id="path444"
           style="fill:#f79c8d;fill-opacity:1;fill-rule:nonzero;stroke:none"
           d="m 16268,2460.52 c 0,0 -10.5,-103.51 -10.5,-149.16 0,-45.59 42.5,-174.21 22.8,-193.91 -19.7,-19.69 -582.2,-17.3 -582.2,1.23 0,18.53 99.5,74.71 234.6,113.26 135,38.61 180.9,188.22 145.9,274.16 l 189.4,-45.58" /></g><g
         transform="scale(1.5485)"
         id="g446"><path
           id="path448"
           style="fill:#13375b;fill-opacity:1;fill-rule:nonzero;stroke:none"
           d="m 15691.1,2117.72 c 0,17.24 92.2,70.26 211.7,106.75 127.3,-43.01 304.1,-7.49 370.4,5.17 20.3,-53.08 26.8,-103.33 16.3,-113.79 -19.7,-19.7 -598.4,-16.66 -598.4,1.87" /></g><g
         transform="scale(1.6605)"
         id="g450"><path
           id="path452"
           style="fill:#fae0b2;fill-opacity:1;fill-rule:nonzero;stroke:none"
           d="m 15742.2,3908.17 94,-83.47 c 0,0 106,-286.72 112.1,-305.69 8.6,-26.32 351.7,-1131.89 351.7,-1131.89 l -239,-86 c 0,0 -237,461.67 -276.3,622.04 -39.2,160.37 -431.9,831.2 -431.9,831.2 l 389.4,153.81" /></g><g
         transform="scale(1.56133)"
         id="g454"><path
           id="path456"
           style="fill:#fae0b2;fill-opacity:1;fill-rule:nonzero;stroke:none"
           d="m 16300,3975.45 -121.8,-1558.41 h -281.9 c 0,0 -100.9,1166.25 -66.2,1575.77 l 469.9,-17.36" /></g><g
         transform="scale(1.61401)"
         id="g458"><path
           id="path460"
           style="fill:#50bfa5;fill-opacity:1;fill-rule:nonzero;stroke:none"
           d="m 15290,5364.11 c 0,0 173.3,45.41 370.3,56.38 102,5.64 239,-15.99 239,-15.99 0,0 124.6,-279.43 161.6,-508.36 37.1,-229 239.1,-962.95 239.1,-962.95 0,0 -410.8,-316.41 -1010,-107.74 v 1538.66" /></g><g
         transform="scale(1.56533)"
         id="g462"><path
           id="path464"
           style="fill:#f79c8d;fill-opacity:1;fill-rule:nonzero;stroke:none"
           d="m 16246.8,5788.93 c 0,0 -5.6,-184.3 11.7,-201.61 17.4,-17.32 41.5,-46 16.1,-90.02 -25.5,-43.95 -136,-15.91 -187.5,9.27 -49.4,24.15 -81.4,69.12 -81.4,69.12 l 25.9,291.95 215.2,-78.71" /></g><g
         transform="scale(1.56022)"
         id="g466"><path
           id="path468"
           style="fill:#b75742;fill-opacity:1;fill-rule:nonzero;stroke:none"
           d="m 16226.3,5731.24 c -35.6,12.5 -97.9,36.53 -145.9,114.6 l 3.7,41.02 215.9,-78.96 c 0,0 -1.3,-45.13 -0.6,-92.88 -30.3,1.29 -56.1,10.32 -73.1,16.22" /></g><g
         transform="scale(1.53809)"
         id="g470"><path
           id="path472"
           style="fill:#f79c8d;fill-opacity:1;fill-rule:nonzero;stroke:none"
           d="m 16276.9,6183.63 c 0,0 -5.4,110.27 -73.1,88.88 -67.7,-21.39 -16.1,-187.83 40.1,-182.37 56.1,5.46 33,93.49 33,93.49" /></g><g
         transform="scale(1.58178)"
         id="g474"><path
           id="path476"
           style="fill:#f79c8d;fill-opacity:1;fill-rule:nonzero;stroke:none"
           d="m 16034.4,6363.13 c 0,0 103,2.29 155.7,-77.86 52.6,-80.17 109.9,-309.21 22.8,-467.2 -86.9,-158.05 -198,-119.11 -243.9,-103.05 -45.7,15.99 -136.2,51.53 -182,199.21 -45.8,147.74 -12.6,479.82 247.4,448.9" /></g><g
         transform="scale(1.54887)"
         id="g478"><path
           id="path480"
           style="fill:#355389;fill-opacity:1;fill-rule:nonzero;stroke:none"
           d="m 15953,5594.59 c 48.1,-108.34 166.1,-341.6 160.7,-598.89 -5.7,-269.48 -208.4,-444.39 -208.4,-444.39 v -133.19 c 0,0 223.7,35.25 309.2,383.44 85.5,348.19 -120.3,821.24 -120.3,821.24 0,0 -29.3,20.92 -87.5,4.72 -38.8,-10.85 -53.7,-32.93 -53.7,-32.93" /></g><g
         transform="scale(1.59928)"
         id="g482"><path
           id="path484"
           style="fill:#355389;fill-opacity:1;fill-rule:nonzero;stroke:none"
           d="m 15926.1,5471.33 c 0,0 162.7,-876.14 373.9,-932.92 l -36.8,149.38 c 0,0 -217.5,708.82 -217.5,766.47 0,57.59 -119.6,17.07 -119.6,17.07" /></g><g
         transform="scale(1.60581)"
         id="g486"><path
           id="path488"
           style="fill:#f47458;fill-opacity:1;fill-rule:nonzero;stroke:none"
           d="m 16300,3955.95 h -629.1 v 716.89 l 629.1,-27.96 v -688.93" /></g><g
         transform="scale(1.60581)"
         id="g490"><path
           id="path492"
           style="fill:#b75742;fill-opacity:1;fill-rule:nonzero;stroke:none"
           d="m 16300,4700.74 h -601.1 c -15.5,0 -28,-12.51 -28,-27.9 v 0 c 0,-15.44 12.5,-27.96 28,-27.96 h 601.1 l -0.5,0.19 c -41.5,15.57 -41.3,40.23 0.5,55.67" /></g><g
         transform="scale(1.60412)"
         id="g494"><path
           id="path496"
           style="fill:#fae0b2;fill-opacity:1;fill-rule:nonzero;stroke:none"
           d="m 16300,4697.48 h -563.8 c -10.9,0 -19.8,-8.85 -19.8,-19.7 v 0 c 0,-10.91 8.9,-19.7 19.8,-19.7 h 563.8 c -19.1,12.15 -19.1,27.18 0,39.4" /></g><g
         transform="scale(1.57864)"
         id="g498"><path
           id="path500"
           style="fill:#13375b;fill-opacity:1;fill-rule:nonzero;stroke:none"
           d="m 16300,4769.16 h -40.3 c -8.7,0 -15.6,-7.04 -15.6,-15.71 v -1.4 h 55.9 v 17.11" /></g><g
         transform="scale(1.59271)"
         id="g502"><path
           id="path504"
           style="fill:#355389;fill-opacity:1;fill-rule:nonzero;stroke:none"
           d="m 16117.8,4726.99 c 9.5,0 23.8,-8.1 31.8,-18.02 l 94.8,-117.47 h 55.6 l -90.1,111.75 c -10.5,13.13 -29.4,23.8 -41.9,23.74 h -50.2" /></g><g
         transform="scale(1.61412)"
         id="g506"><path
           id="path508"
           style="fill:#f79c8d;fill-opacity:1;fill-rule:nonzero;stroke:none"
           d="m 15288.9,5363.74 c 0,0 47.2,-47.33 97.7,-226.69 50.5,-179.35 76.2,-599.27 120,-643.01 43.8,-43.74 329.9,-271.54 381.5,-263.74 51.6,7.87 167.2,142.56 203.2,142.56 35.8,0 31.4,-32.53 13.4,-50.5 -17.9,-17.96 -39.8,-38.72 -29.2,-49.37 10.7,-10.66 10.7,-10.66 10.7,-10.66 0,0 159.9,42.07 186.9,26.33 26.9,-15.67 -25.9,-52.72 -25.9,-79.67 0,-26.89 6.6,-26.45 3.4,-56.07 -3.2,-29.67 -10.6,-53.34 -24.7,-67.34 -14,-14.07 -190.8,-65.11 -363.5,-41.51 -172.9,23.54 -383.8,106.56 -539.8,299.61 -156,192.98 -124.8,799.63 -121.2,860.16 9,153.15 87.5,159.9 87.5,159.9" /></g><g
         transform="scale(1.56521)"
         id="g510"><path
           id="path512"
           style="fill:#f7cc7f;fill-opacity:1;fill-rule:nonzero;stroke:none"
           d="m 15652.2,7561.12 c 61.4,-161.99 242.4,-243.55 404.3,-182.17 162,61.37 243.5,242.44 182.2,404.43 -61.4,161.98 -242.4,243.54 -404.4,182.17 -161.9,-61.38 -243.5,-242.44 -182.1,-404.43" /></g><g
         transform="scale(1.55106)"
         id="g514"><path
           id="path516"
           style="fill:#efefef;fill-opacity:1;fill-rule:nonzero;stroke:none"
           d="m 16266.9,7755.33 c 33.1,-87.4 -10.9,-185.09 -98.3,-218.21 -87.4,-33.12 -185,10.89 -218.1,98.29 l 316.4,119.92" /></g></g></g></svg>